<svg width="209" height="194" viewBox="0 0 209 194" fill="none" xmlns="http://www.w3.org/2000/svg">
<path d="M89.5415 166.738C107.918 148.278 116.708 124.025 115.934 100.265C139.66 100.893 163.909 92.0295 182.286 73.5688C215.481 40.2213 217.588 -12.111 188.217 -45.9627L179.224 -36.9283C203.771 -7.87859 201.781 36.5118 173.55 64.8723C157.284 81.2124 135.674 88.7918 114.652 87.6511C113.585 81.5056 111.824 75.4501 109.366 69.6392C106.81 62.4822 99.9031 57.7977 92.2337 57.905C87.147 58.0013 82.4915 60.1711 79.1295 63.5485C75.7655 66.928 73.617 71.5933 73.5041 76.7205C73.392 84.5063 78.1859 91.3894 85.4702 93.8717C91.2165 96.2277 97.2419 97.9238 103.314 98.9643C104.551 119.981 97.0706 141.626 80.7672 158.004C52.536 186.365 8.15579 188.557 -21.0075 164.144L-30.0002 173.178C3.98498 202.395 56.3061 200.05 89.5035 166.7L89.5415 166.738ZM89.9205 82.0321C87.6189 81.2294 86.033 79.0242 86.0685 76.5574C86.1154 73.3198 88.8129 70.6099 92.0902 70.5081C94.5568 70.4613 96.7691 71.9612 97.5843 74.2572C99.1876 77.9642 100.442 81.8704 101.386 85.7837C97.4688 84.857 93.6348 83.6184 89.9205 82.0321Z" fill="#6E3DFF"/>
</svg>
