<svg width="154" height="61" viewBox="0 0 154 61" fill="none" xmlns="http://www.w3.org/2000/svg">
<path d="M8.56001 55.59C6.90001 55.59 5.44 55.22 4.18 54.48C2.92 53.74 1.94001 52.73 1.24001 51.43C0.540006 50.13 0.190002 48.63 0.190002 46.93C0.190002 45.23 0.540002 43.72 1.26 42.41C1.97 41.09 2.96001 40.06 4.22001 39.32C5.49001 38.57 6.95 38.2 8.61 38.2C9.81 38.2 10.82 38.37 11.67 38.71C12.51 39.05 13.19 39.44 13.71 39.89C14.11 40.2 14.41 40.53 14.62 40.88C14.83 41.23 14.93 41.52 14.93 41.76C14.93 41.93 14.89 42.09 14.81 42.22C14.73 42.35 14.64 42.46 14.54 42.56C14.44 42.66 14.33 42.73 14.21 42.77C14.1 42.81 14 42.84 13.92 42.86C13.84 42.88 13.79 42.88 13.78 42.86C13.47 42.25 13.05 41.73 12.53 41.3C12.01 40.87 11.41 40.53 10.74 40.29C10.06 40.05 9.35 39.93 8.61 39.93C7.34 39.93 6.23 40.22 5.26 40.81C4.29 41.4 3.53 42.22 3 43.28C2.46 44.34 2.19 45.55 2.19 46.92C2.19 48.29 2.46 49.47 3.01 50.52C3.56 51.57 4.32 52.39 5.3 52.99C6.28 53.59 7.4 53.89 8.67 53.89C9.35 53.89 9.97001 53.81 10.54 53.64C11.11 53.47 11.62 53.24 12.07 52.94C12.52 52.64 12.91 52.29 13.23 51.89C13.55 51.49 13.79 51.06 13.94 50.59C13.96 50.57 14.01 50.57 14.1 50.58C14.19 50.59 14.29 50.62 14.41 50.67C14.53 50.72 14.65 50.79 14.77 50.87C14.89 50.95 14.99 51.06 15.07 51.2C15.15 51.34 15.19 51.49 15.19 51.67C15.19 51.93 15.08 52.26 14.85 52.67C14.62 53.08 14.28 53.48 13.81 53.88C13.29 54.33 12.59 54.73 11.7 55.09C10.82 55.45 9.77 55.62 8.55 55.62L8.56001 55.59Z" fill="white"/>
<path d="M22.99 55.59C21.74 55.59 20.64 55.31 19.68 54.75C18.72 54.19 17.96 53.42 17.42 52.44C16.88 51.46 16.6 50.35 16.6 49.1C16.6 47.85 16.87 46.74 17.42 45.77C17.97 44.8 18.72 44.03 19.69 43.47C20.66 42.91 21.77 42.62 23.02 42.62C24.27 42.62 25.37 42.9 26.32 43.47C27.27 44.04 28.02 44.81 28.57 45.8C29.12 46.79 29.39 47.91 29.39 49.15C29.39 50.39 29.12 51.51 28.57 52.48C28.02 53.45 27.27 54.21 26.31 54.77C25.35 55.33 24.24 55.6 23 55.6L22.99 55.59ZM23.02 54.03C23.9 54.03 24.69 53.82 25.39 53.39C26.08 52.97 26.63 52.39 27.03 51.65C27.43 50.91 27.63 50.08 27.63 49.14C27.63 48.2 27.43 47.36 27.03 46.62C26.63 45.87 26.09 45.28 25.39 44.84C24.7 44.4 23.9 44.18 23 44.18C22.1 44.18 21.32 44.4 20.62 44.83C19.92 45.26 19.37 45.85 18.97 46.58C18.57 47.32 18.37 48.15 18.37 49.09C18.37 50.03 18.57 50.87 18.97 51.63C19.37 52.38 19.92 52.97 20.62 53.4C21.32 53.82 22.12 54.04 23.03 54.04L23.02 54.03Z" fill="white"/>
<path d="M32.66 55.38C32.42 55.38 32.22 55.32 32.06 55.2C31.9 55.08 31.83 54.84 31.83 54.5V43.01C31.83 43.01 31.89 42.95 32.02 42.89C32.15 42.83 32.31 42.8 32.5 42.8C32.78 42.8 33.03 42.9 33.27 43.1C33.5 43.3 33.64 43.72 33.67 44.36V45.4L33.7 46.78V54.5C33.7 54.85 33.62 55.08 33.47 55.2C33.31 55.32 33.11 55.38 32.87 55.38H32.66ZM41.29 55.38C41.06 55.38 40.87 55.32 40.71 55.2C40.55 55.08 40.46 54.84 40.46 54.5V47.95C40.46 47.17 40.34 46.51 40.11 45.96C39.88 45.41 39.53 45 39.06 44.72C38.59 44.44 38 44.3 37.29 44.3C36.79 44.3 36.31 44.4 35.85 44.6C35.39 44.8 34.97 45.09 34.6 45.46C34.23 45.83 33.93 46.27 33.7 46.77L33.05 45.89L33.67 44.93C34.09 44.25 34.64 43.7 35.33 43.27C36.02 42.84 36.8 42.62 37.67 42.62C38.36 42.62 38.99 42.73 39.54 42.96C40.09 43.18 40.56 43.51 40.94 43.92C41.32 44.33 41.62 44.83 41.82 45.4C42.22 44.59 42.79 43.92 43.54 43.4C44.29 42.88 45.19 42.62 46.24 42.62C47.02 42.62 47.7 42.74 48.29 42.97C48.88 43.2 49.37 43.55 49.76 44C50.15 44.45 50.44 45 50.64 45.65C50.84 46.3 50.94 47.04 50.94 47.87V54.5C50.94 54.85 50.87 55.08 50.72 55.2C50.57 55.32 50.38 55.38 50.14 55.38H49.93C49.69 55.38 49.49 55.32 49.33 55.2C49.17 55.08 49.1 54.84 49.1 54.5V48.05C49.1 46.84 48.83 45.91 48.28 45.27C47.73 44.63 46.94 44.31 45.9 44.31C45.4 44.31 44.91 44.41 44.44 44.61C43.97 44.81 43.56 45.1 43.19 45.47C42.83 45.84 42.53 46.29 42.31 46.81V54.51C42.31 54.86 42.23 55.09 42.08 55.21C41.92 55.33 41.72 55.39 41.48 55.39H41.27L41.29 55.38Z" fill="white"/>
<path d="M60.07 55.41C59.31 55.41 58.93 55 58.93 54.19V40.88H54.33C53.5 40.88 53.08 40.5 53.08 39.74V39.61C53.08 38.86 53.5 38.49 54.33 38.49H66.24C67.05 38.49 67.46 38.86 67.46 39.61V39.74C67.46 40.5 67.05 40.88 66.24 40.88H61.64V54.19C61.64 54.59 61.54 54.89 61.34 55.1C61.14 55.31 60.84 55.41 60.44 55.41H60.08H60.07Z" fill="white"/>
<path d="M72.49 55.64C71.21 55.64 70.07 55.36 69.08 54.8C68.09 54.24 67.32 53.46 66.77 52.46C66.21 51.46 65.94 50.32 65.94 49.04C65.94 47.76 66.22 46.63 66.77 45.65C67.32 44.67 68.1 43.9 69.1 43.34C70.1 42.78 71.24 42.49 72.52 42.49C73.8 42.49 74.93 42.77 75.91 43.34C76.89 43.9 77.66 44.68 78.21 45.68C78.76 46.68 79.04 47.82 79.04 49.1C79.04 50.38 78.76 51.49 78.21 52.48C77.65 53.47 76.88 54.24 75.9 54.81C74.91 55.37 73.78 55.65 72.49 55.65V55.64ZM72.49 53.54C73.29 53.54 74 53.34 74.62 52.96C75.24 52.57 75.74 52.04 76.1 51.37C76.46 50.7 76.65 49.95 76.65 49.1C76.65 48.25 76.47 47.46 76.12 46.79C75.76 46.11 75.27 45.58 74.65 45.19C74.03 44.8 73.31 44.61 72.49 44.61C71.67 44.61 70.98 44.8 70.34 45.18C69.71 45.56 69.21 46.09 68.85 46.75C68.49 47.42 68.3 48.18 68.3 49.05C68.3 49.92 68.48 50.67 68.85 51.35C69.21 52.03 69.71 52.57 70.34 52.96C70.97 53.35 71.69 53.54 72.49 53.54Z" fill="white"/>
<path d="M85.99 60.79C83.89 60.79 82.34 60.5 81.34 59.93C80.33 59.36 79.83 58.49 79.83 57.33C79.83 56.72 80 56.19 80.35 55.72C80.7 55.25 81.17 54.86 81.78 54.55C82.39 54.24 83.06 54.02 83.81 53.9C83.65 53.76 83.53 53.6 83.45 53.41C83.36 53.22 83.32 52.99 83.32 52.73C83.32 52.47 83.38 52.22 83.51 51.99C83.64 51.76 83.81 51.55 84.02 51.38C83.01 51.07 82.22 50.54 81.63 49.79C81.04 49.04 80.75 48.19 80.75 47.22C80.75 46.34 80.98 45.54 81.44 44.83C81.9 44.12 82.54 43.55 83.35 43.13C84.16 42.71 85.08 42.49 86.11 42.49C86.66 42.49 87.19 42.56 87.7 42.69C88.21 42.82 88.67 43.01 89.1 43.25L89.78 42.05C89.99 41.7 90.2 41.45 90.43 41.3C90.66 41.14 90.93 41.07 91.26 41.07C91.5 41.07 91.71 41.12 91.88 41.23C92.05 41.33 92.2 41.46 92.31 41.59C92.42 41.73 92.5 41.85 92.54 41.97C92.58 42.08 92.6 42.15 92.58 42.16L90.45 44.37C90.8 44.75 91.06 45.18 91.26 45.66C91.45 46.14 91.55 46.64 91.55 47.16C91.55 48.03 91.32 48.81 90.86 49.5C90.4 50.19 89.76 50.74 88.95 51.12C88.14 51.51 87.2 51.7 86.14 51.7H85.67C85.62 51.77 85.58 51.84 85.57 51.91C85.55 51.98 85.54 52.06 85.54 52.14C85.54 52.4 85.67 52.6 85.93 52.75C86.19 52.9 86.57 53.02 87.07 53.13C87.57 53.23 88.19 53.38 88.92 53.57C89.51 53.73 90.08 53.94 90.64 54.21C91.19 54.48 91.65 54.83 92.02 55.28C92.38 55.72 92.57 56.29 92.57 56.98C92.57 57.76 92.31 58.44 91.79 59.01C91.27 59.58 90.52 60.02 89.55 60.34C88.58 60.65 87.4 60.81 86.01 60.81L85.99 60.79ZM86.04 59C87.31 59 88.29 58.83 88.99 58.49C89.69 58.15 90.04 57.67 90.04 57.05C90.04 56.72 89.92 56.45 89.69 56.24C89.46 56.03 89.15 55.86 88.77 55.72C88.39 55.58 87.96 55.46 87.5 55.36C87.29 55.31 87.08 55.26 86.86 55.2C86.64 55.15 86.42 55.1 86.2 55.04C85.49 55.08 84.84 55.18 84.25 55.37C83.66 55.55 83.19 55.8 82.83 56.11C82.47 56.42 82.3 56.8 82.3 57.25C82.3 57.8 82.62 58.23 83.25 58.54C83.88 58.84 84.81 59 86.04 59ZM86.12 50C86.69 50 87.2 49.88 87.64 49.65C88.08 49.42 88.42 49.08 88.67 48.65C88.91 48.22 89.03 47.72 89.03 47.17C89.03 46.62 88.9 46.13 88.65 45.7C88.4 45.28 88.05 44.94 87.61 44.7C87.17 44.46 86.65 44.34 86.06 44.34C85.51 44.34 85.01 44.46 84.56 44.69C84.11 44.92 83.78 45.25 83.53 45.68C83.29 46.1 83.17 46.6 83.17 47.18C83.17 47.76 83.3 48.23 83.55 48.66C83.8 49.09 84.15 49.43 84.59 49.66C85.03 49.89 85.54 50.01 86.11 50.01L86.12 50Z" fill="white"/>
<path d="M100.03 55.64C98.71 55.64 97.56 55.37 96.57 54.82C95.58 54.27 94.81 53.51 94.26 52.53C93.7 51.55 93.43 50.41 93.43 49.11C93.43 47.81 93.71 46.71 94.26 45.72C94.81 44.72 95.57 43.93 96.53 43.35C97.49 42.77 98.59 42.48 99.82 42.48C101.05 42.48 102.09 42.74 102.98 43.27C103.87 43.8 104.57 44.54 105.07 45.48C105.57 46.43 105.82 47.52 105.82 48.77V48.98C105.82 49.26 105.76 49.45 105.65 49.56C105.54 49.67 105.33 49.73 105.04 49.73H95.81C95.81 49.8 95.81 49.87 95.82 49.95C95.83 50.03 95.84 50.11 95.86 50.2C95.98 50.88 96.23 51.47 96.61 51.98C96.99 52.49 97.48 52.89 98.08 53.18C98.68 53.47 99.34 53.61 100.07 53.61C100.8 53.61 101.41 53.52 101.92 53.32C102.42 53.13 102.84 52.88 103.18 52.57C103.52 52.26 103.79 51.91 104 51.53C104.02 51.51 104.1 51.53 104.23 51.56C104.37 51.6 104.52 51.66 104.7 51.74C104.87 51.83 105.02 51.96 105.15 52.13C105.28 52.3 105.35 52.53 105.35 52.81C105.35 53.09 105.23 53.39 105 53.71C104.77 54.03 104.42 54.34 103.97 54.63C103.52 54.91 102.96 55.15 102.31 55.34C101.65 55.54 100.89 55.64 100.02 55.64H100.03ZM103.33 48C103.3 47.27 103.13 46.64 102.82 46.11C102.52 45.58 102.11 45.17 101.6 44.88C101.09 44.59 100.49 44.44 99.79 44.44C99.09 44.44 98.49 44.59 97.93 44.9C97.37 45.2 96.9 45.62 96.54 46.16C96.18 46.7 95.94 47.31 95.84 48.01H103.33V48Z" fill="white"/>
<path d="M112.4 55.64C111.55 55.64 110.85 55.48 110.29 55.17C109.73 54.86 109.32 54.39 109.05 53.78C108.78 53.17 108.65 52.41 108.65 51.51V44.91H107.74C107.34 44.91 107.06 44.83 106.88 44.66C106.71 44.5 106.62 44.26 106.62 43.95V43.77C106.62 43.46 106.71 43.22 106.88 43.06C107.05 42.9 107.34 42.81 107.74 42.81H108.65V40.89C108.65 40.44 108.75 40.12 108.96 39.94C109.17 39.76 109.44 39.67 109.79 39.67H110.05C110.4 39.67 110.67 39.75 110.87 39.92C111.07 40.09 111.17 40.41 111.17 40.9V42.82H114C114.4 42.82 114.68 42.9 114.85 43.05C115.01 43.21 115.1 43.44 115.1 43.75V43.93C115.1 44.26 115.01 44.51 114.84 44.67C114.67 44.84 114.38 44.92 113.98 44.92H111.15V51.24C111.15 52.02 111.28 52.6 111.53 52.98C111.78 53.36 112.21 53.55 112.82 53.55C113.22 53.55 113.57 53.47 113.86 53.3C114.15 53.13 114.4 52.92 114.59 52.66C114.62 52.63 114.7 52.65 114.81 52.73C114.92 52.81 115.04 52.93 115.15 53.09C115.26 53.25 115.32 53.48 115.32 53.75C115.32 53.96 115.28 54.16 115.19 54.35C115.1 54.54 114.96 54.72 114.77 54.9C114.53 55.13 114.21 55.31 113.81 55.45C113.41 55.59 112.94 55.66 112.41 55.66L112.4 55.64Z" fill="white"/>
<path d="M118.51 55.41C118.18 55.41 117.91 55.32 117.69 55.15C117.47 54.98 117.36 54.66 117.36 54.19V37.73C117.36 37.73 117.45 37.64 117.63 37.56C117.81 37.48 118.03 37.44 118.29 37.44C118.55 37.44 118.81 37.5 119.06 37.62C119.31 37.74 119.52 37.96 119.68 38.27C119.84 38.58 119.93 39.04 119.93 39.65V45.06L119.88 44.85C120.19 44.36 120.55 43.95 120.95 43.6C121.35 43.25 121.81 42.98 122.33 42.78C122.85 42.58 123.43 42.48 124.07 42.48C125.18 42.48 126.09 42.71 126.8 43.18C127.51 43.65 128.04 44.29 128.39 45.1C128.74 45.92 128.91 46.84 128.91 47.88V54.17C128.91 54.64 128.8 54.96 128.59 55.13C128.37 55.3 128.1 55.39 127.77 55.39H127.48C127.15 55.39 126.88 55.3 126.66 55.13C126.44 54.96 126.34 54.64 126.34 54.17V48.16C126.34 47.09 126.08 46.24 125.57 45.64C125.06 45.03 124.35 44.73 123.45 44.73C122.74 44.73 122.12 44.88 121.59 45.17C121.06 45.46 120.65 45.88 120.37 46.43C120.08 46.98 119.94 47.63 119.94 48.39V54.16C119.94 54.63 119.83 54.95 119.61 55.12C119.39 55.29 119.12 55.38 118.79 55.38H118.5L118.51 55.41Z" fill="white"/>
<path d="M137.75 55.64C136.43 55.64 135.28 55.37 134.29 54.82C133.3 54.27 132.53 53.51 131.98 52.53C131.43 51.55 131.15 50.41 131.15 49.11C131.15 47.81 131.43 46.71 131.98 45.72C132.53 44.72 133.29 43.93 134.26 43.35C135.22 42.77 136.32 42.48 137.55 42.48C138.78 42.48 139.82 42.74 140.71 43.27C141.6 43.8 142.3 44.54 142.8 45.48C143.3 46.43 143.55 47.52 143.55 48.77V48.98C143.55 49.26 143.49 49.45 143.38 49.56C143.27 49.67 143.06 49.73 142.77 49.73H133.54C133.54 49.8 133.54 49.87 133.55 49.95C133.55 50.03 133.57 50.11 133.59 50.2C133.71 50.88 133.96 51.47 134.34 51.98C134.72 52.49 135.21 52.89 135.81 53.18C136.41 53.47 137.07 53.61 137.8 53.61C138.53 53.61 139.14 53.52 139.65 53.32C140.15 53.13 140.57 52.88 140.91 52.57C141.25 52.26 141.52 51.91 141.73 51.53C141.75 51.51 141.82 51.53 141.96 51.56C142.1 51.6 142.25 51.66 142.43 51.74C142.6 51.83 142.76 51.96 142.89 52.13C143.02 52.3 143.08 52.53 143.08 52.81C143.08 53.09 142.96 53.39 142.73 53.71C142.5 54.03 142.15 54.34 141.7 54.63C141.25 54.91 140.7 55.15 140.04 55.34C139.38 55.54 138.62 55.64 137.75 55.64ZM141.06 48C141.02 47.27 140.86 46.64 140.55 46.11C140.25 45.58 139.84 45.17 139.33 44.88C138.82 44.59 138.22 44.44 137.52 44.44C136.82 44.44 136.22 44.59 135.66 44.9C135.1 45.2 134.63 45.62 134.27 46.16C133.91 46.7 133.67 47.31 133.57 48.01H141.06V48Z" fill="white"/>
<path d="M146.65 55.41C146.32 55.41 146.05 55.32 145.83 55.15C145.61 54.98 145.5 54.66 145.5 54.19V42.96C145.5 42.96 145.59 42.87 145.77 42.79C145.95 42.71 146.17 42.67 146.43 42.67C146.72 42.67 147.02 42.75 147.31 42.92C147.6 43.09 147.81 43.42 147.93 43.92C147.96 44.04 147.99 44.18 148.01 44.34C148.03 44.5 148.04 44.67 148.04 44.86L148.07 49.8V54.19C148.07 54.66 147.96 54.98 147.74 55.15C147.52 55.32 147.25 55.41 146.92 55.41H146.63H146.65ZM147.42 46.49L148.04 44.85C148.32 44.09 148.72 43.5 149.24 43.1C149.76 42.69 150.42 42.49 151.22 42.49C151.65 42.49 152.02 42.56 152.33 42.69C152.63 42.82 152.87 43.01 153.03 43.26C153.19 43.51 153.28 43.81 153.28 44.16C153.28 44.4 153.24 44.61 153.16 44.78C153.08 44.95 152.99 45.1 152.9 45.21C152.8 45.32 152.72 45.4 152.64 45.44C152.56 45.48 152.51 45.5 152.5 45.48C152.31 45.32 152.08 45.19 151.82 45.09C151.56 44.99 151.26 44.93 150.91 44.93C149.9 44.93 149.18 45.38 148.74 46.28C148.3 47.18 148.08 48.35 148.08 49.79L147.43 46.49H147.42Z" fill="white"/>
<path d="M84.52 24.22C84.1 24.22 83.73 24.16 83.43 24.05C83.13 23.94 82.9 23.8 82.73 23.65C82.64 23.56 82.57 23.47 82.52 23.38C82.47 23.29 82.45 23.21 82.45 23.13C82.45 23.06 82.47 22.99 82.51 22.93C82.55 22.87 82.59 22.82 82.64 22.78C82.69 22.74 82.74 22.7 82.78 22.68C82.82 22.66 82.85 22.65 82.85 22.66C82.96 22.81 83.09 22.95 83.25 23.08C83.41 23.21 83.6 23.31 83.81 23.39C84.02 23.47 84.25 23.5 84.5 23.5C84.75 23.5 84.97 23.47 85.15 23.4C85.33 23.33 85.46 23.23 85.56 23.11C85.65 22.98 85.7 22.83 85.7 22.65C85.7 22.5 85.66 22.37 85.59 22.27C85.52 22.17 85.42 22.08 85.29 22.02C85.16 21.96 85.02 21.9 84.85 21.85C84.68 21.8 84.51 21.76 84.33 21.72C84.12 21.67 83.91 21.61 83.71 21.54C83.5 21.47 83.32 21.38 83.15 21.26C82.98 21.14 82.85 20.99 82.75 20.8C82.65 20.62 82.6 20.38 82.6 20.11C82.6 19.8 82.68 19.52 82.85 19.28C83.02 19.04 83.25 18.85 83.55 18.71C83.85 18.57 84.19 18.51 84.58 18.51C84.94 18.51 85.25 18.55 85.52 18.64C85.79 18.73 85.99 18.83 86.14 18.96C86.25 19.04 86.34 19.13 86.39 19.23C86.44 19.33 86.47 19.41 86.47 19.49C86.47 19.57 86.45 19.64 86.41 19.7C86.37 19.76 86.32 19.81 86.27 19.86C86.22 19.9 86.17 19.93 86.13 19.95C86.09 19.97 86.07 19.98 86.06 19.97C85.96 19.83 85.84 19.7 85.69 19.59C85.54 19.48 85.38 19.39 85.19 19.33C85 19.27 84.8 19.23 84.59 19.23C84.36 19.23 84.16 19.26 83.99 19.33C83.82 19.4 83.68 19.5 83.59 19.62C83.5 19.75 83.45 19.9 83.45 20.07C83.45 20.27 83.51 20.42 83.62 20.53C83.73 20.63 83.88 20.72 84.08 20.77C84.28 20.83 84.5 20.89 84.76 20.95C84.99 21 85.22 21.07 85.44 21.15C85.66 21.23 85.86 21.33 86.03 21.46C86.2 21.59 86.34 21.74 86.44 21.92C86.54 22.1 86.59 22.33 86.59 22.6C86.59 22.93 86.51 23.22 86.34 23.47C86.17 23.72 85.94 23.91 85.63 24.04C85.32 24.17 84.96 24.24 84.53 24.24L84.52 24.22Z" fill="white"/>
<path d="M89.24 24.22C88.96 24.22 88.73 24.17 88.55 24.07C88.37 23.97 88.23 23.82 88.15 23.62C88.07 23.42 88.02 23.17 88.02 22.88V20.72H87.72C87.59 20.72 87.5 20.69 87.44 20.64C87.38 20.59 87.36 20.51 87.36 20.41V20.35C87.36 20.25 87.39 20.17 87.44 20.12C87.49 20.07 87.59 20.04 87.72 20.04H88.02V19.41C88.02 19.26 88.05 19.16 88.12 19.1C88.19 19.04 88.28 19.01 88.39 19.01H88.47C88.58 19.01 88.67 19.04 88.74 19.09C88.8 19.14 88.84 19.25 88.84 19.41V20.04H89.77C89.9 20.04 89.99 20.07 90.05 20.12C90.1 20.17 90.13 20.25 90.13 20.35V20.41C90.13 20.52 90.1 20.6 90.05 20.65C90 20.7 89.9 20.73 89.77 20.73H88.84V22.8C88.84 23.06 88.88 23.25 88.96 23.37C89.04 23.49 89.18 23.56 89.38 23.56C89.51 23.56 89.62 23.53 89.72 23.48C89.82 23.43 89.9 23.36 89.96 23.27C89.97 23.26 90 23.27 90.03 23.29C90.07 23.32 90.1 23.36 90.14 23.41C90.18 23.46 90.2 23.54 90.2 23.63C90.2 23.7 90.19 23.76 90.16 23.83C90.13 23.9 90.09 23.95 90.02 24.01C89.94 24.08 89.84 24.14 89.71 24.19C89.58 24.23 89.43 24.26 89.25 24.26L89.24 24.22Z" fill="white"/>
<path d="M91.75 24.14C91.64 24.14 91.55 24.11 91.48 24.06C91.41 24.01 91.37 23.9 91.37 23.75V20.08C91.37 20.08 91.4 20.05 91.46 20.02C91.52 19.99 91.59 19.98 91.68 19.98C91.78 19.98 91.87 20.01 91.97 20.06C92.07 20.11 92.13 20.22 92.17 20.39C92.18 20.43 92.19 20.47 92.2 20.53C92.2 20.58 92.2 20.64 92.2 20.7V22.32V23.76C92.2 23.91 92.16 24.02 92.09 24.07C92.02 24.13 91.93 24.15 91.82 24.15H91.73L91.75 24.14ZM92 21.23L92.2 20.69C92.29 20.44 92.42 20.25 92.59 20.12C92.76 19.99 92.98 19.92 93.24 19.92C93.38 19.92 93.5 19.94 93.6 19.98C93.7 20.02 93.78 20.09 93.83 20.17C93.88 20.25 93.91 20.35 93.91 20.46C93.91 20.54 93.9 20.61 93.87 20.66C93.84 20.72 93.82 20.76 93.78 20.8C93.75 20.84 93.72 20.86 93.7 20.88C93.67 20.89 93.66 20.9 93.65 20.89C93.59 20.84 93.51 20.8 93.43 20.76C93.35 20.73 93.25 20.71 93.13 20.71C92.8 20.71 92.56 20.86 92.42 21.15C92.28 21.44 92.2 21.83 92.2 22.3L91.99 21.22L92 21.23Z" fill="white"/>
<path d="M96.06 24.2C95.62 24.2 95.28 24.09 95.04 23.88C94.79 23.67 94.67 23.38 94.67 23.04C94.67 22.72 94.77 22.46 94.97 22.27C95.17 22.08 95.48 21.92 95.88 21.82C96.29 21.72 96.8 21.67 97.41 21.65H97.52V21.57C97.52 21.26 97.43 21.02 97.26 20.86C97.09 20.7 96.84 20.61 96.51 20.61C96.2 20.61 95.95 20.68 95.76 20.82C95.57 20.96 95.43 21.12 95.34 21.31C95.27 21.31 95.21 21.31 95.16 21.29C95.11 21.28 95.06 21.25 95 21.23C94.94 21.21 94.9 21.16 94.87 21.11C94.84 21.06 94.82 20.99 94.82 20.91C94.82 20.83 94.84 20.75 94.89 20.66C94.94 20.57 95.01 20.49 95.1 20.4C95.24 20.27 95.44 20.16 95.68 20.07C95.92 19.98 96.22 19.93 96.57 19.93C96.96 19.93 97.28 19.99 97.55 20.12C97.82 20.25 98.02 20.43 98.15 20.68C98.29 20.92 98.35 21.22 98.35 21.56V24.07C98.35 24.07 98.32 24.11 98.26 24.13C98.2 24.15 98.13 24.16 98.05 24.16C97.94 24.16 97.84 24.13 97.75 24.07C97.66 24.01 97.6 23.92 97.57 23.78C97.57 23.74 97.56 23.7 97.55 23.65C97.54 23.6 97.54 23.55 97.54 23.5C97.44 23.65 97.31 23.77 97.16 23.88C97.01 23.98 96.84 24.07 96.66 24.12C96.48 24.17 96.28 24.2 96.07 24.2H96.06ZM96.26 23.6C96.5 23.6 96.72 23.55 96.91 23.46C97.1 23.37 97.25 23.24 97.36 23.07C97.47 22.9 97.52 22.71 97.52 22.5V22.19H97.29C96.89 22.21 96.56 22.25 96.3 22.31C96.03 22.37 95.83 22.46 95.7 22.57C95.56 22.68 95.5 22.83 95.5 23.02C95.5 23.21 95.57 23.35 95.7 23.45C95.84 23.56 96.03 23.61 96.27 23.61L96.26 23.6Z" fill="white"/>
<path d="M101.27 24.22C100.99 24.22 100.76 24.17 100.58 24.07C100.4 23.97 100.26 23.82 100.18 23.62C100.1 23.42 100.05 23.17 100.05 22.88V20.72H99.75C99.62 20.72 99.53 20.69 99.47 20.64C99.41 20.59 99.39 20.51 99.39 20.41V20.35C99.39 20.25 99.42 20.17 99.47 20.12C99.52 20.07 99.62 20.04 99.75 20.04H100.05V19.41C100.05 19.26 100.08 19.16 100.15 19.1C100.22 19.04 100.31 19.01 100.42 19.01H100.5C100.61 19.01 100.7 19.04 100.77 19.09C100.83 19.14 100.87 19.25 100.87 19.41V20.04H101.8C101.93 20.04 102.02 20.07 102.08 20.12C102.13 20.17 102.16 20.25 102.16 20.35V20.41C102.16 20.52 102.13 20.6 102.08 20.65C102.03 20.7 101.93 20.73 101.8 20.73H100.87V22.8C100.87 23.06 100.91 23.25 100.99 23.37C101.07 23.49 101.21 23.56 101.41 23.56C101.54 23.56 101.65 23.53 101.75 23.48C101.85 23.43 101.93 23.36 101.99 23.27C102 23.26 102.03 23.27 102.06 23.29C102.1 23.32 102.13 23.36 102.17 23.41C102.21 23.46 102.23 23.54 102.23 23.63C102.23 23.7 102.22 23.76 102.19 23.83C102.16 23.9 102.12 23.95 102.05 24.01C101.97 24.08 101.87 24.14 101.74 24.19C101.61 24.23 101.46 24.26 101.28 24.26L101.27 24.22Z" fill="white"/>
<path d="M105.15 24.22C104.72 24.22 104.34 24.13 104.02 23.95C103.7 23.77 103.44 23.52 103.26 23.2C103.08 22.88 102.99 22.51 102.99 22.08C102.99 21.65 103.08 21.3 103.26 20.97C103.44 20.64 103.69 20.39 104 20.2C104.31 20.01 104.67 19.91 105.08 19.91C105.49 19.91 105.82 20 106.11 20.17C106.4 20.34 106.63 20.58 106.79 20.89C106.95 21.2 107.04 21.56 107.04 21.97V22.04C107.04 22.13 107.02 22.19 106.98 22.23C106.94 22.27 106.88 22.28 106.78 22.28H103.76C103.76 22.28 103.76 22.33 103.76 22.35C103.76 22.37 103.76 22.4 103.77 22.43C103.81 22.65 103.89 22.85 104.02 23.01C104.15 23.17 104.3 23.31 104.5 23.4C104.7 23.49 104.91 23.54 105.15 23.54C105.39 23.54 105.59 23.51 105.75 23.45C105.91 23.39 106.05 23.31 106.16 23.2C106.27 23.1 106.36 22.99 106.43 22.86C106.43 22.86 106.46 22.86 106.51 22.86C106.56 22.87 106.61 22.89 106.66 22.92C106.71 22.95 106.77 22.99 106.81 23.05C106.85 23.11 106.87 23.18 106.87 23.27C106.87 23.36 106.83 23.46 106.76 23.56C106.68 23.66 106.57 23.77 106.42 23.86C106.27 23.95 106.09 24.03 105.88 24.09C105.66 24.16 105.42 24.19 105.13 24.19L105.15 24.22ZM106.23 21.72C106.22 21.48 106.16 21.28 106.06 21.1C105.96 20.92 105.83 20.79 105.66 20.7C105.49 20.6 105.3 20.56 105.07 20.56C104.84 20.56 104.65 20.61 104.46 20.71C104.28 20.81 104.12 20.95 104.01 21.12C103.9 21.29 103.81 21.5 103.78 21.72H106.23ZM104.36 19.39C104.36 19.39 104.34 19.39 104.33 19.39C104.32 19.39 104.31 19.39 104.3 19.38C104.3 19.38 104.3 19.37 104.3 19.35C104.3 19.32 104.32 19.26 104.37 19.16C104.41 19.06 104.48 18.94 104.56 18.81C104.64 18.68 104.73 18.55 104.84 18.42C104.95 18.3 105.06 18.19 105.18 18.11C105.3 18.03 105.43 17.99 105.55 17.99C105.67 17.99 105.76 18.03 105.82 18.1C105.88 18.17 105.91 18.27 105.91 18.37C105.91 18.49 105.86 18.61 105.77 18.72C105.68 18.83 105.55 18.92 105.4 19C105.25 19.08 105.1 19.15 104.95 19.21C104.8 19.27 104.67 19.31 104.56 19.34C104.45 19.37 104.38 19.39 104.36 19.39Z" fill="white"/>
<path d="M109.8 25.9C109.11 25.9 108.61 25.81 108.28 25.62C107.95 25.43 107.79 25.15 107.79 24.77C107.79 24.57 107.85 24.4 107.96 24.24C108.07 24.09 108.23 23.96 108.43 23.86C108.63 23.76 108.85 23.69 109.09 23.65C109.04 23.61 109 23.55 108.97 23.49C108.94 23.43 108.93 23.35 108.93 23.27C108.93 23.19 108.95 23.1 108.99 23.03C109.03 22.95 109.09 22.89 109.16 22.83C108.83 22.73 108.57 22.55 108.38 22.31C108.19 22.07 108.09 21.79 108.09 21.47C108.09 21.18 108.17 20.92 108.32 20.69C108.47 20.46 108.68 20.27 108.94 20.13C109.21 19.99 109.51 19.92 109.84 19.92C110.02 19.92 110.19 19.94 110.36 19.98C110.52 20.02 110.68 20.08 110.82 20.16L111.04 19.77C111.11 19.66 111.18 19.57 111.25 19.52C111.32 19.47 111.41 19.44 111.52 19.44C111.6 19.44 111.67 19.46 111.72 19.49C111.78 19.52 111.82 19.56 111.86 19.61C111.9 19.66 111.92 19.7 111.94 19.73C111.95 19.77 111.96 19.79 111.95 19.79L111.25 20.51C111.36 20.63 111.45 20.77 111.51 20.93C111.57 21.09 111.6 21.25 111.6 21.42C111.6 21.7 111.52 21.96 111.37 22.18C111.22 22.41 111.01 22.58 110.75 22.71C110.48 22.84 110.18 22.9 109.83 22.9H109.68C109.68 22.9 109.65 22.95 109.65 22.97C109.65 22.99 109.65 23.02 109.65 23.05C109.65 23.13 109.69 23.2 109.78 23.25C109.86 23.3 109.99 23.34 110.15 23.37C110.31 23.4 110.52 23.45 110.75 23.51C110.94 23.56 111.13 23.63 111.31 23.72C111.49 23.81 111.64 23.92 111.76 24.07C111.88 24.22 111.94 24.4 111.94 24.63C111.94 24.88 111.86 25.11 111.68 25.29C111.51 25.48 111.27 25.62 110.95 25.72C110.63 25.82 110.25 25.87 109.79 25.87L109.8 25.9ZM109.82 25.32C110.23 25.32 110.55 25.26 110.78 25.15C111.01 25.04 111.12 24.88 111.12 24.68C111.12 24.57 111.08 24.48 111.01 24.42C110.93 24.35 110.83 24.3 110.71 24.25C110.59 24.21 110.45 24.17 110.29 24.13C110.22 24.11 110.15 24.1 110.08 24.08C110.01 24.06 109.94 24.05 109.86 24.03C109.63 24.04 109.42 24.08 109.22 24.14C109.03 24.2 108.87 24.28 108.76 24.38C108.64 24.48 108.59 24.61 108.59 24.75C108.59 24.93 108.69 25.07 108.9 25.17C109.11 25.27 109.41 25.32 109.81 25.32H109.82ZM109.85 22.38C110.04 22.38 110.2 22.34 110.35 22.27C110.5 22.2 110.61 22.08 110.69 21.94C110.77 21.8 110.81 21.64 110.81 21.46C110.81 21.28 110.77 21.12 110.69 20.98C110.61 20.84 110.49 20.73 110.35 20.65C110.21 20.57 110.04 20.53 109.84 20.53C109.66 20.53 109.5 20.57 109.35 20.64C109.21 20.72 109.09 20.82 109.01 20.96C108.93 21.1 108.89 21.26 108.89 21.45C108.89 21.64 108.93 21.79 109.01 21.93C109.09 22.07 109.21 22.18 109.35 22.26C109.49 22.34 109.66 22.37 109.85 22.37V22.38Z" fill="white"/>
<path d="M113.43 19.2C113.27 19.2 113.15 19.16 113.06 19.07C112.97 18.98 112.93 18.86 112.93 18.72C112.93 18.58 112.98 18.45 113.07 18.36C113.16 18.27 113.29 18.23 113.44 18.23C113.59 18.23 113.72 18.27 113.81 18.36C113.9 18.45 113.94 18.57 113.94 18.72C113.94 18.87 113.9 18.99 113.81 19.08C113.73 19.16 113.6 19.21 113.44 19.21L113.43 19.2ZM113.38 24.14C113.27 24.14 113.18 24.11 113.11 24.06C113.04 24.01 113 23.9 113 23.75V20.39C113 20.24 113.04 20.13 113.11 20.07C113.18 20.01 113.27 19.98 113.38 19.98H113.46C113.57 19.98 113.66 20.01 113.73 20.06C113.8 20.11 113.83 20.22 113.83 20.38V23.74C113.83 23.89 113.8 24 113.73 24.05C113.66 24.1 113.57 24.13 113.46 24.13H113.38V24.14Z" fill="white"/>
<path d="M117.25 24.22C116.82 24.22 116.44 24.13 116.12 23.95C115.8 23.77 115.54 23.52 115.36 23.2C115.18 22.88 115.09 22.51 115.09 22.08C115.09 21.65 115.18 21.3 115.36 20.97C115.54 20.64 115.79 20.39 116.1 20.2C116.41 20.01 116.77 19.91 117.18 19.91C117.59 19.91 117.92 20 118.21 20.17C118.5 20.34 118.73 20.58 118.89 20.89C119.05 21.2 119.14 21.56 119.14 21.97V22.04C119.14 22.13 119.12 22.19 119.08 22.23C119.04 22.27 118.98 22.28 118.88 22.28H115.86C115.86 22.28 115.86 22.33 115.86 22.35C115.86 22.37 115.86 22.4 115.87 22.43C115.91 22.65 115.99 22.85 116.12 23.01C116.25 23.17 116.4 23.31 116.6 23.4C116.8 23.49 117.01 23.54 117.25 23.54C117.49 23.54 117.69 23.51 117.85 23.45C118.01 23.39 118.15 23.31 118.26 23.2C118.37 23.1 118.46 22.99 118.53 22.86C118.53 22.86 118.56 22.86 118.61 22.86C118.66 22.87 118.71 22.89 118.76 22.92C118.81 22.95 118.87 22.99 118.91 23.05C118.95 23.11 118.97 23.18 118.97 23.27C118.97 23.36 118.93 23.46 118.86 23.56C118.78 23.66 118.67 23.77 118.52 23.86C118.37 23.95 118.19 24.03 117.98 24.09C117.76 24.16 117.52 24.19 117.23 24.19L117.25 24.22ZM118.33 21.72C118.32 21.48 118.26 21.28 118.16 21.1C118.06 20.92 117.93 20.79 117.76 20.7C117.59 20.6 117.4 20.56 117.17 20.56C116.94 20.56 116.75 20.61 116.56 20.71C116.38 20.81 116.22 20.95 116.11 21.12C116 21.29 115.91 21.5 115.88 21.72H118.33Z" fill="white"/>
<path d="M84.35 32.42C83.95 32.42 83.61 32.36 83.31 32.23C83.01 32.1 82.78 31.91 82.61 31.66C82.44 31.41 82.36 31.11 82.36 30.76C82.36 30.49 82.42 30.25 82.53 30.05C82.64 29.85 82.8 29.67 83.01 29.53C83.22 29.39 83.46 29.27 83.75 29.19C83.61 29.04 83.5 28.88 83.41 28.69C83.32 28.51 83.27 28.3 83.27 28.07C83.27 27.82 83.34 27.58 83.47 27.38C83.6 27.17 83.78 27.01 84.01 26.89C84.24 26.77 84.51 26.71 84.81 26.71C85.09 26.71 85.33 26.77 85.55 26.88C85.77 26.99 85.93 27.14 86.06 27.34C86.18 27.54 86.24 27.76 86.24 28.01C86.24 28.23 86.19 28.42 86.09 28.59C85.99 28.76 85.85 28.91 85.66 29.04C85.47 29.16 85.24 29.27 84.96 29.35L86.25 30.51C86.31 30.4 86.37 30.28 86.42 30.17C86.47 30.05 86.51 29.93 86.56 29.8C86.6 29.67 86.64 29.54 86.67 29.4C86.72 29.22 86.79 29.09 86.87 29.03C86.95 28.96 87.05 28.93 87.16 28.93C87.25 28.93 87.32 28.95 87.37 28.98C87.42 29.01 87.47 29.05 87.5 29.09C87.53 29.13 87.54 29.16 87.53 29.17C87.46 29.52 87.35 29.84 87.22 30.15C87.09 30.46 86.94 30.74 86.76 30.99L87.92 32.03C87.92 32.03 87.92 32.06 87.92 32.09C87.91 32.13 87.88 32.17 87.85 32.21C87.81 32.26 87.76 32.29 87.7 32.33C87.64 32.37 87.56 32.38 87.46 32.38C87.39 32.38 87.3 32.36 87.21 32.33C87.12 32.3 87.02 32.23 86.91 32.12C86.81 32.02 86.72 31.93 86.62 31.84C86.52 31.75 86.42 31.65 86.33 31.56C86.08 31.84 85.78 32.05 85.46 32.21C85.13 32.37 84.78 32.44 84.39 32.44L84.35 32.42ZM84.41 31.76C84.69 31.76 84.94 31.7 85.18 31.57C85.42 31.45 85.62 31.28 85.8 31.08L84.15 29.59C83.96 29.65 83.79 29.73 83.64 29.83C83.5 29.93 83.38 30.05 83.3 30.19C83.22 30.33 83.18 30.5 83.18 30.7C83.18 31.03 83.29 31.3 83.52 31.48C83.75 31.66 84.05 31.76 84.41 31.76ZM84.48 28.96C84.71 28.89 84.9 28.82 85.05 28.73C85.2 28.65 85.31 28.54 85.38 28.43C85.45 28.31 85.49 28.18 85.49 28.03C85.49 27.89 85.46 27.77 85.4 27.67C85.34 27.57 85.25 27.48 85.15 27.42C85.05 27.36 84.92 27.33 84.78 27.33C84.54 27.33 84.35 27.4 84.23 27.55C84.11 27.7 84.04 27.87 84.04 28.07C84.04 28.25 84.08 28.4 84.15 28.55C84.23 28.69 84.34 28.83 84.48 28.97V28.96Z" fill="white"/>
<path d="M92.71 32.42C92.3 32.42 91.94 32.33 91.62 32.14C91.3 31.96 91.05 31.7 90.86 31.38C90.67 31.06 90.58 30.68 90.58 30.26C90.58 29.84 90.67 29.48 90.86 29.16C91.05 28.84 91.3 28.58 91.62 28.4C91.94 28.22 92.3 28.12 92.71 28.12C93.02 28.12 93.28 28.16 93.5 28.24C93.72 28.32 93.9 28.42 94.04 28.54C94.18 28.65 94.29 28.78 94.35 28.91C94.42 29.04 94.45 29.15 94.45 29.25C94.45 29.33 94.43 29.4 94.38 29.46C94.33 29.52 94.28 29.55 94.21 29.58C94.14 29.61 94.09 29.63 94.04 29.63C93.99 29.63 93.96 29.63 93.96 29.63C93.9 29.48 93.82 29.34 93.71 29.22C93.6 29.1 93.48 29.01 93.31 28.93C93.15 28.86 92.95 28.82 92.72 28.82C92.47 28.82 92.24 28.88 92.04 29.01C91.84 29.13 91.68 29.3 91.56 29.52C91.44 29.74 91.38 29.98 91.38 30.26C91.38 30.54 91.44 30.79 91.55 31.01C91.67 31.23 91.83 31.4 92.03 31.53C92.23 31.65 92.46 31.72 92.72 31.72C92.95 31.72 93.15 31.68 93.31 31.61C93.47 31.54 93.6 31.44 93.71 31.32C93.81 31.2 93.9 31.06 93.96 30.92C93.96 30.91 93.99 30.91 94.04 30.92C94.09 30.92 94.15 30.94 94.21 30.97C94.27 31 94.33 31.04 94.38 31.09C94.43 31.14 94.45 31.22 94.45 31.31C94.45 31.4 94.42 31.51 94.35 31.64C94.28 31.77 94.17 31.89 94.03 32.01C93.89 32.13 93.71 32.23 93.49 32.31C93.27 32.39 93.01 32.43 92.71 32.43V32.42Z" fill="white"/>
<path d="M95.99 32.34C95.88 32.34 95.79 32.31 95.72 32.26C95.65 32.21 95.61 32.1 95.61 31.95V28.28C95.61 28.28 95.64 28.25 95.7 28.22C95.76 28.19 95.83 28.18 95.92 28.18C96.02 28.18 96.11 28.21 96.21 28.26C96.31 28.31 96.37 28.42 96.41 28.59C96.42 28.63 96.43 28.67 96.44 28.73C96.44 28.78 96.44 28.84 96.44 28.9V30.52V31.96C96.44 32.11 96.4 32.22 96.33 32.27C96.26 32.33 96.17 32.35 96.06 32.35H95.97L95.99 32.34ZM96.25 29.43L96.45 28.89C96.54 28.64 96.67 28.45 96.84 28.32C97.01 28.19 97.23 28.12 97.49 28.12C97.63 28.12 97.75 28.14 97.85 28.18C97.95 28.22 98.03 28.29 98.08 28.37C98.13 28.45 98.16 28.55 98.16 28.66C98.16 28.74 98.15 28.81 98.12 28.86C98.09 28.92 98.07 28.96 98.03 29C98 29.04 97.97 29.06 97.95 29.08C97.92 29.09 97.91 29.1 97.9 29.09C97.84 29.04 97.76 29 97.68 28.96C97.6 28.93 97.5 28.91 97.38 28.91C97.05 28.91 96.81 29.06 96.67 29.35C96.53 29.64 96.45 30.03 96.45 30.5L96.24 29.42L96.25 29.43Z" fill="white"/>
<path d="M100.93 32.42C100.5 32.42 100.12 32.33 99.8 32.15C99.48 31.97 99.22 31.72 99.04 31.4C98.86 31.08 98.77 30.71 98.77 30.28C98.77 29.85 98.86 29.5 99.04 29.17C99.22 28.84 99.47 28.59 99.78 28.4C100.09 28.21 100.45 28.11 100.86 28.11C101.27 28.11 101.6 28.2 101.89 28.37C102.18 28.54 102.41 28.78 102.57 29.09C102.73 29.4 102.82 29.76 102.82 30.17V30.24C102.82 30.33 102.8 30.39 102.76 30.43C102.72 30.47 102.66 30.48 102.56 30.48H99.54C99.54 30.48 99.54 30.53 99.54 30.55C99.54 30.57 99.54 30.6 99.55 30.63C99.59 30.85 99.67 31.05 99.8 31.21C99.93 31.37 100.08 31.51 100.28 31.6C100.48 31.69 100.69 31.74 100.93 31.74C101.17 31.74 101.37 31.71 101.53 31.65C101.69 31.59 101.83 31.51 101.94 31.4C102.05 31.3 102.14 31.19 102.21 31.06C102.21 31.06 102.24 31.06 102.29 31.06C102.34 31.07 102.39 31.09 102.44 31.12C102.49 31.15 102.55 31.19 102.59 31.25C102.63 31.31 102.65 31.38 102.65 31.47C102.65 31.56 102.61 31.66 102.54 31.76C102.46 31.86 102.35 31.97 102.2 32.06C102.05 32.15 101.87 32.23 101.66 32.29C101.44 32.36 101.2 32.39 100.91 32.39L100.93 32.42ZM102.01 29.92C102 29.68 101.94 29.48 101.84 29.3C101.74 29.12 101.61 28.99 101.44 28.9C101.27 28.8 101.08 28.76 100.85 28.76C100.62 28.76 100.43 28.81 100.24 28.91C100.06 29.01 99.9 29.15 99.79 29.32C99.68 29.49 99.59 29.7 99.56 29.92H102.01ZM100.14 27.59C100.14 27.59 100.12 27.59 100.11 27.59C100.1 27.59 100.09 27.59 100.08 27.58C100.08 27.58 100.08 27.57 100.08 27.55C100.08 27.52 100.1 27.46 100.15 27.36C100.19 27.26 100.26 27.14 100.34 27.01C100.42 26.88 100.51 26.75 100.62 26.62C100.73 26.5 100.84 26.39 100.96 26.31C101.08 26.23 101.21 26.19 101.33 26.19C101.45 26.19 101.54 26.23 101.6 26.3C101.66 26.37 101.69 26.47 101.69 26.57C101.69 26.69 101.64 26.81 101.55 26.92C101.46 27.03 101.33 27.12 101.18 27.2C101.03 27.28 100.88 27.35 100.73 27.41C100.58 27.47 100.45 27.51 100.34 27.54C100.23 27.57 100.16 27.59 100.14 27.59Z" fill="white"/>
<path d="M105.19 32.4C104.75 32.4 104.41 32.29 104.17 32.08C103.92 31.87 103.8 31.58 103.8 31.24C103.8 30.92 103.9 30.66 104.1 30.47C104.3 30.28 104.61 30.12 105.01 30.02C105.42 29.92 105.93 29.87 106.54 29.85H106.65V29.77C106.65 29.46 106.56 29.22 106.39 29.06C106.22 28.9 105.97 28.81 105.64 28.81C105.33 28.81 105.08 28.88 104.89 29.02C104.7 29.16 104.56 29.32 104.47 29.51C104.4 29.51 104.34 29.51 104.29 29.49C104.24 29.48 104.19 29.45 104.13 29.43C104.07 29.41 104.03 29.36 104 29.31C103.97 29.26 103.95 29.19 103.95 29.11C103.95 29.03 103.97 28.95 104.02 28.86C104.07 28.77 104.14 28.69 104.23 28.6C104.37 28.47 104.57 28.36 104.81 28.27C105.05 28.18 105.35 28.13 105.7 28.13C106.09 28.13 106.41 28.19 106.68 28.32C106.95 28.45 107.15 28.63 107.28 28.88C107.42 29.12 107.48 29.42 107.48 29.76V32.27C107.48 32.27 107.45 32.31 107.39 32.33C107.33 32.35 107.26 32.36 107.18 32.36C107.07 32.36 106.97 32.33 106.88 32.27C106.79 32.21 106.73 32.12 106.7 31.98C106.7 31.94 106.69 31.9 106.68 31.85C106.67 31.8 106.67 31.75 106.67 31.7C106.57 31.85 106.44 31.97 106.29 32.08C106.14 32.18 105.97 32.27 105.79 32.32C105.61 32.37 105.41 32.4 105.2 32.4H105.19ZM105.39 31.8C105.63 31.8 105.85 31.75 106.04 31.66C106.23 31.57 106.38 31.44 106.49 31.27C106.6 31.1 106.65 30.91 106.65 30.7V30.39H106.42C106.02 30.41 105.69 30.45 105.43 30.51C105.16 30.57 104.96 30.66 104.83 30.77C104.69 30.88 104.63 31.03 104.63 31.22C104.63 31.41 104.7 31.55 104.83 31.65C104.97 31.76 105.16 31.81 105.4 31.81L105.39 31.8Z" fill="white"/>
<path d="M110.4 32.42C110.12 32.42 109.89 32.37 109.71 32.27C109.53 32.17 109.39 32.02 109.31 31.82C109.23 31.62 109.18 31.37 109.18 31.08V28.92H108.88C108.75 28.92 108.66 28.89 108.6 28.84C108.54 28.79 108.52 28.71 108.52 28.61V28.55C108.52 28.45 108.55 28.37 108.6 28.32C108.65 28.27 108.75 28.24 108.88 28.24H109.18V27.61C109.18 27.46 109.21 27.36 109.28 27.3C109.35 27.24 109.44 27.21 109.55 27.21H109.63C109.74 27.21 109.83 27.24 109.9 27.29C109.96 27.34 110 27.45 110 27.61V28.24H110.93C111.06 28.24 111.15 28.27 111.21 28.32C111.26 28.37 111.29 28.45 111.29 28.55V28.61C111.29 28.72 111.26 28.8 111.21 28.85C111.16 28.9 111.06 28.93 110.93 28.93H110V31C110 31.26 110.04 31.45 110.12 31.57C110.2 31.69 110.34 31.76 110.54 31.76C110.67 31.76 110.78 31.73 110.88 31.68C110.98 31.63 111.06 31.56 111.12 31.47C111.13 31.46 111.16 31.47 111.19 31.49C111.23 31.52 111.26 31.56 111.3 31.61C111.34 31.66 111.36 31.74 111.36 31.83C111.36 31.9 111.35 31.96 111.32 32.03C111.29 32.1 111.25 32.15 111.18 32.21C111.1 32.28 111 32.34 110.87 32.39C110.74 32.43 110.59 32.46 110.41 32.46L110.4 32.42Z" fill="white"/>
<path d="M112.96 27.4C112.8 27.4 112.68 27.36 112.59 27.27C112.5 27.18 112.46 27.06 112.46 26.92C112.46 26.78 112.51 26.65 112.6 26.56C112.69 26.47 112.82 26.43 112.97 26.43C113.12 26.43 113.25 26.47 113.34 26.56C113.43 26.65 113.47 26.77 113.47 26.92C113.47 27.07 113.43 27.19 113.34 27.28C113.26 27.36 113.13 27.41 112.97 27.41L112.96 27.4ZM112.91 32.34C112.8 32.34 112.71 32.31 112.64 32.26C112.57 32.21 112.53 32.1 112.53 31.95V28.59C112.53 28.44 112.57 28.33 112.64 28.27C112.71 28.21 112.8 28.18 112.91 28.18H112.99C113.1 28.18 113.19 28.21 113.26 28.26C113.33 28.31 113.36 28.42 113.36 28.58V31.94C113.36 32.09 113.33 32.2 113.26 32.25C113.19 32.3 113.1 32.33 112.99 32.33H112.91V32.34Z" fill="white"/>
<path d="M116.5 32.36C116.4 32.36 116.32 32.36 116.26 32.34C116.19 32.33 116.14 32.3 116.1 32.26C116.06 32.22 116.02 32.17 115.99 32.11L114.49 28.42C114.49 28.42 114.49 28.38 114.54 28.34C114.58 28.3 114.63 28.26 114.7 28.23C114.77 28.2 114.85 28.18 114.94 28.18C115.06 28.18 115.16 28.21 115.24 28.28C115.32 28.35 115.4 28.48 115.47 28.68L116.5 31.56L117.56 28.68C117.63 28.48 117.71 28.35 117.79 28.28C117.87 28.21 117.97 28.18 118.07 28.18C118.16 28.18 118.24 28.2 118.3 28.23C118.36 28.26 118.42 28.3 118.45 28.34C118.49 28.38 118.5 28.41 118.5 28.42L117.01 32.09C116.99 32.15 116.95 32.2 116.9 32.24C116.85 32.28 116.79 32.31 116.73 32.32C116.66 32.34 116.58 32.35 116.49 32.35L116.5 32.36Z" fill="white"/>
<path d="M120.06 27.4C119.9 27.4 119.78 27.36 119.69 27.27C119.6 27.18 119.56 27.06 119.56 26.92C119.56 26.78 119.61 26.65 119.7 26.56C119.79 26.47 119.92 26.43 120.07 26.43C120.22 26.43 120.35 26.47 120.44 26.56C120.53 26.65 120.57 26.77 120.57 26.92C120.57 27.07 120.53 27.19 120.44 27.28C120.36 27.36 120.23 27.41 120.07 27.41L120.06 27.4ZM120.01 32.34C119.9 32.34 119.81 32.31 119.74 32.26C119.67 32.21 119.63 32.1 119.63 31.95V28.59C119.63 28.44 119.67 28.33 119.74 28.27C119.81 28.21 119.9 28.18 120.01 28.18H120.09C120.2 28.18 120.29 28.21 120.36 28.26C120.43 28.31 120.46 28.42 120.46 28.58V31.94C120.46 32.09 120.43 32.2 120.36 32.25C120.29 32.3 120.2 32.33 120.09 32.33H120.01V32.34Z" fill="white"/>
<path d="M123.56 32.42C123.28 32.42 123.05 32.37 122.87 32.27C122.69 32.17 122.55 32.02 122.47 31.82C122.39 31.62 122.34 31.37 122.34 31.08V28.92H122.04C121.91 28.92 121.82 28.89 121.76 28.84C121.7 28.79 121.68 28.71 121.68 28.61V28.55C121.68 28.45 121.71 28.37 121.76 28.32C121.81 28.27 121.91 28.24 122.04 28.24H122.34V27.61C122.34 27.46 122.37 27.36 122.44 27.3C122.51 27.24 122.6 27.21 122.71 27.21H122.79C122.9 27.21 122.99 27.24 123.06 27.29C123.12 27.34 123.16 27.45 123.16 27.61V28.24H124.09C124.22 28.24 124.31 28.27 124.37 28.32C124.42 28.37 124.45 28.45 124.45 28.55V28.61C124.45 28.72 124.42 28.8 124.37 28.85C124.32 28.9 124.22 28.93 124.09 28.93H123.16V31C123.16 31.26 123.2 31.45 123.28 31.57C123.36 31.69 123.5 31.76 123.7 31.76C123.83 31.76 123.94 31.73 124.04 31.68C124.14 31.63 124.22 31.56 124.28 31.47C124.29 31.46 124.32 31.47 124.35 31.49C124.39 31.52 124.42 31.56 124.46 31.61C124.5 31.66 124.52 31.74 124.52 31.83C124.52 31.9 124.51 31.96 124.48 32.03C124.45 32.1 124.41 32.15 124.34 32.21C124.26 32.28 124.16 32.34 124.03 32.39C123.9 32.43 123.75 32.46 123.57 32.46L123.56 32.42Z" fill="white"/>
<path d="M127.45 32.42C127.02 32.42 126.64 32.33 126.32 32.15C126 31.97 125.74 31.72 125.56 31.4C125.38 31.08 125.29 30.71 125.29 30.28C125.29 29.85 125.38 29.5 125.56 29.17C125.74 28.84 125.99 28.59 126.3 28.4C126.61 28.21 126.97 28.11 127.38 28.11C127.79 28.11 128.12 28.2 128.41 28.37C128.7 28.54 128.93 28.78 129.09 29.09C129.25 29.4 129.34 29.76 129.34 30.17V30.24C129.34 30.33 129.32 30.39 129.28 30.43C129.24 30.47 129.18 30.48 129.08 30.48H126.06C126.06 30.48 126.06 30.53 126.06 30.55C126.06 30.57 126.06 30.6 126.07 30.63C126.11 30.85 126.19 31.05 126.32 31.21C126.45 31.37 126.6 31.51 126.8 31.6C127 31.69 127.21 31.74 127.45 31.74C127.69 31.74 127.89 31.71 128.05 31.65C128.21 31.59 128.35 31.51 128.46 31.4C128.57 31.3 128.66 31.19 128.73 31.06C128.73 31.06 128.76 31.06 128.81 31.06C128.86 31.07 128.91 31.09 128.96 31.12C129.01 31.15 129.07 31.19 129.11 31.25C129.15 31.31 129.17 31.38 129.17 31.47C129.17 31.56 129.13 31.66 129.06 31.76C128.98 31.86 128.87 31.97 128.72 32.06C128.57 32.15 128.39 32.23 128.18 32.29C127.96 32.36 127.72 32.39 127.43 32.39L127.45 32.42ZM128.53 29.92C128.52 29.68 128.46 29.48 128.36 29.3C128.26 29.12 128.13 28.99 127.96 28.9C127.79 28.8 127.6 28.76 127.37 28.76C127.14 28.76 126.95 28.81 126.76 28.91C126.58 29.01 126.42 29.15 126.31 29.32C126.2 29.49 126.11 29.7 126.08 29.92H128.53ZM126.66 27.59C126.66 27.59 126.64 27.59 126.63 27.59C126.62 27.59 126.61 27.59 126.6 27.58C126.6 27.58 126.6 27.57 126.6 27.55C126.6 27.52 126.62 27.46 126.67 27.36C126.71 27.26 126.78 27.14 126.86 27.01C126.94 26.88 127.03 26.75 127.14 26.62C127.25 26.5 127.36 26.39 127.48 26.31C127.6 26.23 127.73 26.19 127.85 26.19C127.97 26.19 128.06 26.23 128.12 26.3C128.18 26.37 128.21 26.47 128.21 26.57C128.21 26.69 128.16 26.81 128.07 26.92C127.98 27.03 127.85 27.12 127.7 27.2C127.55 27.28 127.4 27.35 127.25 27.41C127.1 27.47 126.97 27.51 126.86 27.54C126.75 27.57 126.68 27.59 126.66 27.59Z" fill="white"/>
<path d="M74.18 17.43C73.59 24.5 67.66 30.08 60.44 30.08C53.22 30.08 47.29 24.5 46.7 17.43H44.4C44.99 25.77 51.95 32.38 60.44 32.38C68.93 32.38 75.89 25.77 76.48 17.43H74.18Z" fill="white"/>
<path d="M42.15 30.02C35.46 29.46 30.11 24.12 29.56 17.43H27.26C27.83 25.39 34.19 31.76 42.15 32.32V30.02Z" fill="white"/>
<path d="M84.16 0.179993C79.46 0.179993 75.24 2.20999 72.3 5.43999C69.36 2.21999 65.14 0.179993 60.44 0.179993C51.95 0.179993 44.99 6.78999 44.4 15.13H46.7C47.29 8.05999 53.22 2.48 60.44 2.48C64.6 2.48 68.32 4.33999 70.85 7.26999C70.2 8.21999 69.65 9.24999 69.22 10.34C68.63 11.62 68.91 13.15 69.9 14.15C70.56 14.81 71.43 15.14 72.29 15.14C73.15 15.14 74.02 14.81 74.69 14.15C75.7 13.14 75.97 11.6 75.36 10.31C74.93 9.23999 74.38 8.21999 73.74 7.27999C76.27 4.34999 79.99 2.48999 84.16 2.48999C91.38 2.48999 97.31 8.06999 97.9 15.14H100.2C99.61 6.79999 92.65 0.189995 84.16 0.189995V0.179993ZM73.28 11.28C73.47 11.69 73.39 12.19 73.07 12.51C72.65 12.93 71.96 12.93 71.53 12.51C71.21 12.19 71.12 11.7 71.31 11.29C71.58 10.59 71.92 9.90999 72.3 9.26999C72.68 9.90999 73.01 10.58 73.28 11.28Z" fill="white"/>
</svg>
