<svg width="300" height="119" viewBox="0 0 300 119" fill="none" xmlns="http://www.w3.org/2000/svg">
<path d="M16.4021 108.583C13.1491 108.583 10.2881 107.858 7.81893 106.408C5.3498 104.958 3.42936 102.979 2.05762 100.431C0.685877 97.8836 0 94.9441 0 91.6128C0 88.2814 0.68587 85.3224 2.09681 82.7552C3.48814 80.1685 5.42818 78.1501 7.89732 76.7C10.3861 75.2302 13.2471 74.5052 16.5001 74.5052C18.8517 74.5052 20.8309 74.8383 22.4966 75.5046C24.1427 76.1709 25.4752 76.9351 26.4942 77.817C27.2781 78.4244 27.866 79.0711 28.2775 79.757C28.689 80.4429 28.885 81.0112 28.885 81.4815C28.885 81.8146 28.8066 82.1281 28.6498 82.3829C28.493 82.6377 28.3167 82.8532 28.1207 83.0492C27.9248 83.2451 27.7092 83.3823 27.474 83.4607C27.2585 83.5391 27.0625 83.5979 26.9057 83.6371C26.749 83.6763 26.651 83.6763 26.6314 83.6371C26.0239 82.4417 25.2009 81.4227 24.1819 80.58C23.1628 79.7374 21.9871 79.0711 20.6741 78.6008C19.3416 78.1305 17.9502 77.8953 16.5001 77.8953C14.0114 77.8953 11.8362 78.4636 9.93533 79.6198C8.03449 80.776 6.54517 82.3829 5.50657 84.4601C4.44837 86.5373 3.91926 88.9085 3.91926 91.5932C3.91926 94.2779 4.44836 96.5902 5.52616 98.6479C6.60396 100.705 8.09328 102.312 10.0137 103.488C11.9342 104.664 14.1289 105.252 16.6177 105.252C17.9502 105.252 19.1652 105.095 20.2822 104.762C21.3992 104.429 22.3986 103.978 23.2804 103.39C24.1623 102.802 24.9265 102.116 25.5536 101.333C26.1807 100.549 26.651 99.706 26.9449 98.785C26.9841 98.7458 27.0821 98.7458 27.2585 98.7654C27.4348 98.785 27.6308 98.8438 27.866 98.9418C28.1011 99.0398 28.3363 99.1769 28.5714 99.3337C28.8066 99.4905 29.0026 99.706 29.1593 99.9804C29.3161 100.255 29.3945 100.549 29.3945 100.901C29.3945 101.411 29.1789 102.058 28.7282 102.861C28.2775 103.664 27.6112 104.448 26.6902 105.232C25.6712 106.114 24.2994 106.898 22.5554 107.603C20.8309 108.309 18.7733 108.642 16.3825 108.642L16.4021 108.583Z" fill="#7F36FF"/>
<path d="M44.6796 108.583C42.23 108.583 40.0744 108.034 38.1932 106.937C36.3119 105.84 34.8226 104.331 33.7644 102.41C32.7062 100.49 32.1575 98.3147 32.1575 95.8652C32.1575 93.4156 32.6866 91.2404 33.7644 89.3396C34.8422 87.4387 36.3119 85.9298 38.2128 84.8324C40.1136 83.7351 42.2888 83.1668 44.7383 83.1668C47.1879 83.1668 49.3435 83.7155 51.2051 84.8324C53.0668 85.9494 54.5365 87.4584 55.6143 89.3984C56.6921 91.3384 57.2212 93.5332 57.2212 95.9631C57.2212 98.3931 56.6921 100.588 55.6143 102.489C54.5365 104.39 53.0668 105.879 51.1855 106.976C49.3043 108.074 47.1291 108.603 44.6991 108.603L44.6796 108.583ZM44.7383 105.526C46.4628 105.526 48.0109 105.115 49.3827 104.272C50.7348 103.449 51.8126 102.312 52.5965 100.862C53.3803 99.4121 53.7722 97.7856 53.7722 95.9436C53.7722 94.1015 53.3803 92.4554 52.5965 91.0053C51.8126 89.5356 50.7544 88.3794 49.3827 87.5171C48.0305 86.6549 46.4628 86.2238 44.6991 86.2238C42.9355 86.2238 41.407 86.6549 40.0352 87.4975C38.6635 88.3402 37.5857 89.4964 36.8018 90.9269C36.018 92.377 35.626 94.0035 35.626 95.8456C35.626 97.6876 36.018 99.3337 36.8018 100.823C37.5857 102.293 38.6635 103.449 40.0352 104.292C41.407 105.115 42.9747 105.546 44.7579 105.546L44.7383 105.526Z" fill="#7F36FF"/>
<path d="M63.6293 108.172C63.159 108.172 62.7671 108.054 62.4535 107.819C62.14 107.584 62.0028 107.113 62.0028 106.447V83.931C62.0028 83.931 62.1204 83.8134 62.3751 83.6959C62.6299 83.5783 62.9434 83.5195 63.3158 83.5195C63.8645 83.5195 64.3544 83.7155 64.8247 84.1074C65.2754 84.4993 65.5497 85.3224 65.6085 86.5765V88.6145L65.6673 91.3188V106.447C65.6673 107.133 65.5105 107.584 65.2166 107.819C64.9031 108.054 64.5111 108.172 64.0408 108.172H63.6293ZM80.5409 108.172C80.0902 108.172 79.7179 108.054 79.4043 107.819C79.0712 107.584 78.9144 107.113 78.9144 106.447V93.6116C78.9144 92.0831 78.6793 90.7897 78.2286 89.7119C77.7778 88.6341 77.092 87.8307 76.1709 87.282C75.2499 86.7333 74.0937 86.4589 72.7024 86.4589C71.7226 86.4589 70.782 86.6549 69.8805 87.0468C68.9791 87.4388 68.156 88.007 67.431 88.7321C66.7059 89.4572 66.118 90.3194 65.6673 91.2992L64.3936 89.5748L65.6085 87.6935C66.4316 86.361 67.5094 85.2832 68.8615 84.4405C70.2137 83.5979 71.7422 83.1668 73.447 83.1668C74.7992 83.1668 76.0338 83.3823 77.1116 83.833C78.1894 84.2641 79.1104 84.9108 79.8551 85.7143C80.5997 86.5373 81.1876 87.4975 81.5795 88.6145C82.3634 87.0272 83.4804 85.7143 84.9501 84.6953C86.4198 83.6763 88.1835 83.1668 90.2411 83.1668C91.7696 83.1668 93.1022 83.4019 94.2583 83.8526C95.4145 84.3033 96.3747 84.9892 97.139 85.871C97.9033 86.7529 98.4715 87.8307 98.8635 89.1044C99.2554 90.3782 99.4514 91.8283 99.4514 93.4548V106.447C99.4514 107.133 99.3142 107.584 99.0202 107.819C98.7263 108.054 98.354 108.172 97.8837 108.172H97.4721C97.0018 108.172 96.6099 108.054 96.2964 107.819C95.9828 107.584 95.8456 107.113 95.8456 106.447V93.8076C95.8456 91.4364 95.3165 89.6139 94.2387 88.3598C93.1609 87.1056 91.6128 86.4785 89.5748 86.4785C88.595 86.4785 87.6348 86.6745 86.7138 87.0664C85.7927 87.4584 84.9893 88.0266 84.2642 88.7517C83.5392 89.4768 82.9709 90.3586 82.5397 91.3776V106.467C82.5397 107.153 82.383 107.603 82.089 107.839C81.7755 108.074 81.3836 108.191 80.9133 108.191H80.5017L80.5409 108.172Z" fill="#7F36FF"/>
<path d="M117.343 108.23C115.853 108.23 115.109 107.427 115.109 105.84V79.757H106.094C104.468 79.757 103.645 79.0123 103.645 77.523V77.2682C103.645 75.7985 104.468 75.0735 106.094 75.0735H129.434C131.041 75.0735 131.824 75.7985 131.824 77.2682V77.523C131.824 79.0123 131.021 79.757 129.434 79.757H120.419V105.84C120.419 106.624 120.223 107.211 119.832 107.623C119.44 108.034 118.852 108.23 118.068 108.23H117.362H117.343Z" fill="#7F36FF"/>
<path d="M141.681 108.681C139.173 108.681 136.939 108.132 134.999 107.035C133.059 105.938 131.55 104.409 130.472 102.45C129.394 100.49 128.846 98.2559 128.846 95.7476C128.846 93.2392 129.394 91.0249 130.472 89.1044C131.55 87.184 133.079 85.6751 135.038 84.5777C136.998 83.4803 139.232 82.912 141.74 82.912C144.248 82.912 146.463 83.4607 148.383 84.5777C150.304 85.6751 151.813 87.2036 152.89 89.1632C153.968 91.1228 154.517 93.3568 154.517 95.8652C154.517 98.3735 153.968 100.549 152.89 102.489C151.793 104.429 150.284 105.938 148.364 107.055C146.424 108.152 144.209 108.701 141.681 108.701V108.681ZM141.681 104.566C143.249 104.566 144.64 104.174 145.855 103.429C147.07 102.665 148.05 101.626 148.756 100.314C149.461 99.0006 149.833 97.5309 149.833 95.8652C149.833 94.1995 149.481 92.6514 148.795 91.3384C148.089 90.0059 147.129 88.9673 145.914 88.203C144.699 87.4387 143.288 87.0664 141.681 87.0664C140.074 87.0664 138.722 87.4387 137.488 88.1834C136.253 88.9281 135.273 89.9667 134.548 91.26C133.843 92.573 133.47 94.0623 133.47 95.7672C133.47 97.4721 133.823 98.9418 134.548 100.274C135.273 101.607 136.234 102.665 137.488 103.429C138.722 104.194 140.133 104.566 141.681 104.566Z" fill="#7F36FF"/>
<path d="M168.136 118.773C164.021 118.773 160.984 118.205 159.024 117.088C157.065 115.971 156.065 114.266 156.065 111.993C156.065 110.798 156.398 109.759 157.084 108.838C157.77 107.917 158.691 107.153 159.886 106.545C161.082 105.938 162.395 105.507 163.864 105.271C163.551 104.997 163.316 104.684 163.159 104.311C162.983 103.939 162.904 103.488 162.904 102.979C162.904 102.469 163.022 101.979 163.277 101.529C163.531 101.078 163.864 100.666 164.276 100.333C162.316 99.7257 160.749 98.687 159.592 97.2173C158.436 95.7476 157.868 94.0819 157.868 92.1811C157.868 90.4566 158.319 88.8889 159.22 87.4976C160.122 86.1062 161.376 84.9892 162.963 84.1662C164.55 83.3431 166.353 82.912 168.372 82.912C169.449 82.912 170.488 83.0492 171.487 83.304C172.487 83.5587 173.388 83.931 174.231 84.4013L175.563 82.0498C175.975 81.3639 176.387 80.874 176.837 80.5801C177.268 80.2665 177.817 80.1293 178.464 80.1293C178.934 80.1293 179.346 80.2273 179.679 80.4429C180.012 80.6389 180.306 80.8936 180.521 81.1484C180.737 81.4031 180.894 81.6579 180.972 81.893C181.05 82.1086 181.09 82.2458 181.05 82.2654L176.876 86.5961C177.562 87.3408 178.072 88.1834 178.464 89.1241C178.836 90.0647 179.032 91.0445 179.032 92.0635C179.032 93.7684 178.581 95.2969 177.68 96.649C176.778 98.0012 175.524 99.079 173.937 99.8236C172.35 100.588 170.508 100.96 168.43 100.96H167.509C167.411 101.097 167.333 101.235 167.313 101.372C167.274 101.509 167.255 101.666 167.255 101.822C167.255 102.332 167.509 102.724 168.019 103.018C168.528 103.312 169.273 103.547 170.253 103.763C171.233 103.958 172.448 104.252 173.878 104.625C175.034 104.938 176.151 105.35 177.249 105.879C178.327 106.408 179.228 107.094 179.953 107.976C180.678 108.858 181.031 109.955 181.031 111.307C181.031 112.836 180.521 114.168 179.502 115.285C178.483 116.402 177.033 117.264 175.113 117.891C173.212 118.499 170.9 118.812 168.176 118.812L168.136 118.773ZM168.234 115.266C170.723 115.266 172.644 114.932 174.015 114.266C175.387 113.6 176.073 112.659 176.073 111.444C176.073 110.798 175.838 110.268 175.387 109.857C174.936 109.445 174.329 109.112 173.584 108.838C172.84 108.564 171.997 108.328 171.095 108.132C170.684 108.035 170.272 107.937 169.841 107.819C169.41 107.721 168.979 107.623 168.548 107.505C167.157 107.584 165.883 107.78 164.727 108.152C163.571 108.505 162.649 108.995 161.944 109.602C161.239 110.21 160.905 110.954 160.905 111.836C160.905 112.914 161.532 113.757 162.767 114.364C164.002 114.952 165.824 115.266 168.234 115.266ZM168.391 97.6289C169.508 97.6289 170.508 97.3937 171.37 96.943C172.232 96.4923 172.898 95.826 173.388 94.9833C173.859 94.1407 174.094 93.1609 174.094 92.0831C174.094 91.0053 173.839 90.0451 173.349 89.2024C172.859 88.3794 172.173 87.7131 171.311 87.2428C170.449 86.7725 169.43 86.5373 168.274 86.5373C167.196 86.5373 166.216 86.7725 165.334 87.2232C164.472 87.6739 163.806 88.3206 163.316 89.1633C162.826 90.0059 162.61 90.9661 162.61 92.1027C162.61 93.2393 162.865 94.1603 163.355 95.003C163.845 95.8456 164.531 96.5119 165.393 96.9626C166.255 97.4133 167.255 97.6484 168.372 97.6484L168.391 97.6289Z" fill="#7F36FF"/>
<path d="M195.65 108.681C193.063 108.681 190.809 108.152 188.869 107.074C186.929 105.996 185.42 104.507 184.343 102.587C183.265 100.666 182.716 98.4323 182.716 95.8848C182.716 93.3373 183.265 91.1817 184.343 89.2416C185.42 87.282 186.91 85.7339 188.81 84.5973C190.692 83.4607 192.847 82.8924 195.258 82.8924C197.668 82.8924 199.706 83.4019 201.45 84.4405C203.194 85.4791 204.566 86.9293 205.546 88.7713C206.526 90.633 207.015 92.769 207.015 95.2185V95.63C207.015 96.1787 206.898 96.551 206.682 96.7666C206.467 96.9822 206.055 97.0997 205.487 97.0997H187.4C187.4 97.2369 187.4 97.3741 187.419 97.5309C187.439 97.6876 187.458 97.8444 187.498 98.0208C187.733 99.3533 188.223 100.509 188.967 101.509C189.712 102.508 190.672 103.292 191.848 103.86C193.024 104.429 194.317 104.703 195.748 104.703C197.178 104.703 198.373 104.527 199.373 104.135C200.353 103.763 201.176 103.273 201.842 102.665C202.508 102.058 203.037 101.372 203.449 100.627C203.488 100.588 203.645 100.627 203.9 100.686C204.174 100.764 204.468 100.882 204.821 101.039C205.154 101.215 205.467 101.47 205.722 101.803C205.977 102.136 206.114 102.587 206.114 103.135C206.114 103.684 205.879 104.272 205.428 104.899C204.977 105.526 204.292 106.134 203.41 106.702C202.528 107.251 201.431 107.721 200.157 108.093C198.863 108.485 197.374 108.681 195.669 108.681H195.65ZM202.116 93.7096C202.038 92.2791 201.724 91.0445 201.117 90.0059C200.529 88.9673 199.726 88.1638 198.726 87.5955C197.727 87.0272 196.551 86.7333 195.179 86.7333C193.808 86.7333 192.632 87.0272 191.534 87.6347C190.437 88.2226 189.516 89.0457 188.81 90.1039C188.105 91.1621 187.635 92.3574 187.439 93.7292H202.116V93.7096Z" fill="#7F36FF"/>
<path d="M219.89 108.681C218.225 108.681 216.853 108.368 215.755 107.76C214.678 107.153 213.855 106.232 213.325 105.036C212.796 103.841 212.542 102.352 212.542 100.588V87.6543H210.758C209.975 87.6543 209.426 87.4976 209.073 87.1644C208.74 86.8509 208.564 86.3806 208.564 85.7731V85.4203C208.564 84.8128 208.74 84.3425 209.073 84.029C209.406 83.6959 209.975 83.5391 210.758 83.5391H212.542V79.7766C212.542 78.8948 212.738 78.2677 213.149 77.915C213.561 77.5622 214.109 77.3858 214.776 77.3858H215.285C215.971 77.3858 216.5 77.5426 216.892 77.8758C217.284 78.2089 217.48 78.836 217.48 79.7962V83.5587H223.026C223.81 83.5587 224.358 83.7155 224.691 84.0094C225.005 84.323 225.181 84.7737 225.181 85.3811V85.7339C225.181 86.3806 225.005 86.8705 224.672 87.184C224.339 87.5171 223.77 87.6739 222.986 87.6739H217.441V100.059C217.441 101.587 217.676 102.724 218.185 103.469C218.675 104.213 219.518 104.586 220.713 104.586C221.497 104.586 222.183 104.429 222.751 104.096C223.32 103.762 223.81 103.351 224.182 102.841C224.241 102.783 224.397 102.822 224.613 102.979C224.829 103.135 225.064 103.371 225.279 103.684C225.495 104.017 225.612 104.448 225.612 104.977C225.612 105.389 225.534 105.781 225.358 106.153C225.181 106.526 224.927 106.878 224.535 107.231C224.064 107.682 223.437 108.034 222.653 108.309C221.869 108.583 220.948 108.72 219.91 108.72L219.89 108.681Z" fill="#7F36FF"/>
<path d="M231.864 108.23C231.217 108.23 230.688 108.054 230.257 107.721C229.826 107.388 229.61 106.761 229.61 105.84V73.5842C229.61 73.5842 229.786 73.4078 230.139 73.251C230.492 73.0942 230.923 73.0159 231.432 73.0159C231.942 73.0159 232.451 73.1334 232.941 73.3686C233.431 73.6038 233.843 74.0349 234.156 74.6424C234.489 75.2498 234.646 76.1513 234.646 77.3467V87.9483L234.548 87.5367C235.156 86.5765 235.861 85.7731 236.645 85.0872C237.429 84.4013 238.33 83.8722 239.349 83.4803C240.368 83.0884 241.505 82.8924 242.759 82.8924C244.934 82.8924 246.718 83.3431 248.109 84.2642C249.5 85.1852 250.539 86.4393 251.225 88.0266C251.911 89.6335 252.244 91.4364 252.244 93.4744V105.8C252.244 106.722 252.028 107.349 251.617 107.682C251.186 108.015 250.656 108.191 250.01 108.191H249.441C248.795 108.191 248.266 108.015 247.835 107.682C247.403 107.349 247.207 106.722 247.207 105.8V94.0231C247.207 91.9263 246.698 90.2606 245.699 89.0848C244.699 87.8895 243.308 87.3016 241.544 87.3016C240.153 87.3016 238.938 87.5955 237.899 88.1638C236.861 88.7321 236.057 89.5552 235.508 90.633C234.94 91.7108 234.666 92.9845 234.666 94.4738V105.781C234.666 106.702 234.45 107.329 234.019 107.662C233.588 107.995 233.059 108.172 232.412 108.172H231.844L231.864 108.23Z" fill="#7F36FF"/>
<path d="M269.567 108.681C266.98 108.681 264.727 108.152 262.787 107.074C260.847 105.996 259.338 104.507 258.26 102.587C257.182 100.666 256.633 98.4323 256.633 95.8848C256.633 93.3373 257.182 91.1817 258.26 89.2416C259.338 87.282 260.827 85.7339 262.728 84.5973C264.609 83.4607 266.765 82.8924 269.175 82.8924C271.585 82.8924 273.623 83.4019 275.367 84.4405C277.111 85.4791 278.483 86.9293 279.463 88.7713C280.443 90.633 280.933 92.769 280.933 95.2185V95.63C280.933 96.1787 280.815 96.551 280.6 96.7666C280.384 96.9822 279.973 97.0997 279.404 97.0997H261.317C261.317 97.2369 261.317 97.3741 261.336 97.5309C261.336 97.6876 261.376 97.8444 261.415 98.0208C261.65 99.3533 262.14 100.509 262.885 101.509C263.629 102.508 264.589 103.292 265.765 103.86C266.941 104.429 268.234 104.703 269.665 104.703C271.095 104.703 272.291 104.527 273.29 104.135C274.27 103.763 275.093 103.273 275.759 102.665C276.426 102.058 276.955 101.372 277.366 100.627C277.405 100.588 277.543 100.627 277.817 100.686C278.091 100.764 278.385 100.882 278.738 101.039C279.071 101.215 279.385 101.47 279.639 101.803C279.894 102.136 280.012 102.587 280.012 103.135C280.012 103.684 279.777 104.272 279.326 104.899C278.875 105.526 278.189 106.134 277.307 106.702C276.426 107.251 275.348 107.721 274.054 108.093C272.761 108.485 271.272 108.681 269.567 108.681ZM276.053 93.7096C275.975 92.2791 275.661 91.0445 275.054 90.0059C274.466 88.9673 273.663 88.1638 272.663 87.5955C271.664 87.0272 270.488 86.7333 269.116 86.7333C267.744 86.7333 266.569 87.0272 265.471 87.6347C264.374 88.2226 263.453 89.0457 262.747 90.1039C262.042 91.1621 261.572 92.3574 261.376 93.7292H276.053V93.7096Z" fill="#7F36FF"/>
<path d="M286.988 108.23C286.341 108.23 285.812 108.054 285.381 107.721C284.95 107.388 284.734 106.761 284.734 105.84V83.833C284.734 83.833 284.911 83.6567 285.264 83.4999C285.616 83.3431 286.047 83.2647 286.557 83.2647C287.125 83.2647 287.713 83.4215 288.281 83.7546C288.85 84.0878 289.261 84.7344 289.496 85.7143C289.555 85.9494 289.614 86.2238 289.653 86.5373C289.692 86.8508 289.712 87.184 289.712 87.5563L289.771 97.2369V105.84C289.771 106.761 289.555 107.388 289.124 107.721C288.693 108.054 288.164 108.23 287.517 108.23H286.949H286.988ZM288.517 90.7505L289.731 87.5367C290.28 86.0474 291.064 84.8912 292.083 84.1074C293.102 83.3039 294.395 82.912 295.963 82.912C296.806 82.912 297.531 83.0492 298.138 83.3039C298.726 83.5587 299.197 83.931 299.51 84.4209C299.824 84.9108 300 85.4987 300 86.1846C300 86.6549 299.922 87.0664 299.765 87.3995C299.608 87.7327 299.432 88.0266 299.255 88.2422C299.059 88.4577 298.903 88.6145 298.746 88.6929C298.589 88.7713 298.491 88.8105 298.471 88.7713C298.099 88.4578 297.648 88.203 297.139 88.007C296.629 87.8111 296.042 87.6935 295.356 87.6935C293.376 87.6935 291.965 88.5753 291.103 90.339C290.241 92.1027 289.81 94.3954 289.81 97.2173L288.536 90.7505H288.517Z" fill="#7F36FF"/>
<path d="M165.236 47.1096C164.413 47.1096 163.688 46.992 163.1 46.7764C162.512 46.5609 162.062 46.2865 161.728 45.9926C161.552 45.8162 161.415 45.6398 161.317 45.4635C161.219 45.2871 161.18 45.1303 161.18 44.9735C161.18 44.8364 161.219 44.6992 161.278 44.5816C161.336 44.464 161.434 44.3661 161.532 44.2877C161.63 44.2093 161.728 44.1309 161.807 44.0917C161.885 44.0525 161.944 44.0329 161.944 44.0525C162.16 44.3465 162.414 44.6208 162.728 44.8756C163.041 45.1303 163.414 45.3263 163.825 45.4831C164.237 45.6398 164.687 45.6986 165.177 45.6986C165.667 45.6986 166.098 45.6398 166.451 45.5027C166.804 45.3655 167.059 45.1695 167.255 44.9344C167.431 44.6796 167.529 44.3857 167.529 44.0329C167.529 43.739 167.451 43.4842 167.313 43.2883C167.176 43.0923 166.98 42.9159 166.725 42.7984C166.471 42.6808 166.196 42.5632 165.863 42.4652C165.53 42.3672 165.197 42.2889 164.844 42.2105C164.433 42.1125 164.021 41.9949 163.629 41.8577C163.218 41.7206 162.865 41.5442 162.532 41.309C162.199 41.0739 161.944 40.7799 161.748 40.4076C161.552 40.0549 161.454 39.5846 161.454 39.0555C161.454 38.448 161.611 37.8993 161.944 37.429C162.277 36.9587 162.728 36.5863 163.316 36.312C163.904 36.0376 164.57 35.9201 165.334 35.9201C166.04 35.9201 166.647 35.9984 167.157 36.1748C167.666 36.3512 168.078 36.5471 168.372 36.8019C168.587 36.9587 168.763 37.135 168.861 37.331C168.959 37.527 169.018 37.6837 169.018 37.8405C169.018 37.9973 168.979 38.1344 168.901 38.252C168.822 38.3696 168.724 38.4676 168.626 38.5656C168.528 38.6439 168.43 38.7027 168.352 38.7419C168.274 38.7811 168.234 38.8007 168.215 38.7811C168.019 38.5068 167.784 38.252 167.49 38.0364C167.196 37.8209 166.882 37.6445 166.51 37.527C166.138 37.4094 165.746 37.331 165.334 37.331C164.883 37.331 164.491 37.3898 164.158 37.527C163.825 37.6641 163.57 37.8601 163.374 38.0953C163.198 38.35 163.1 38.6439 163.1 38.9771C163.1 39.369 163.198 39.6629 163.433 39.8785C163.649 40.0745 163.943 40.2508 164.335 40.3488C164.727 40.4468 165.158 40.584 165.667 40.7016C166.118 40.7995 166.569 40.9367 167 41.0935C167.431 41.2503 167.823 41.4462 168.156 41.701C168.489 41.9557 168.763 42.2497 168.959 42.6024C169.155 42.9551 169.253 43.4058 169.253 43.9349C169.253 44.5816 169.097 45.1499 168.763 45.6398C168.43 46.1297 167.98 46.5021 167.372 46.7568C166.765 47.0116 166.059 47.1487 165.197 47.1487L165.236 47.1096Z" fill="#7F36FF"/>
<path d="M174.505 47.1096C173.956 47.1096 173.506 47.0116 173.153 46.8156C172.8 46.6196 172.526 46.3257 172.369 45.9338C172.212 45.5418 172.114 45.0519 172.114 44.4836V40.2508H171.527C171.272 40.2508 171.095 40.192 170.978 40.0941C170.86 39.9961 170.821 39.8393 170.821 39.6434V39.5258C170.821 39.3298 170.88 39.173 170.978 39.0751C171.076 38.9771 171.272 38.9183 171.527 38.9183H172.114V37.6837C172.114 37.3898 172.173 37.1938 172.31 37.0762C172.448 36.9587 172.624 36.8999 172.839 36.8999H172.996C173.212 36.8999 173.388 36.9586 173.525 37.0566C173.663 37.1546 173.721 37.3702 173.721 37.6837V38.9183H175.544C175.799 38.9183 175.975 38.9771 176.092 39.0751C176.19 39.173 176.249 39.3298 176.249 39.5258V39.6434C176.249 39.8589 176.19 40.0157 176.073 40.1137C175.955 40.2116 175.779 40.2704 175.524 40.2704H173.702V44.3269C173.702 44.8364 173.78 45.2087 173.937 45.4439C174.094 45.679 174.368 45.8162 174.76 45.8162C175.015 45.8162 175.23 45.7574 175.426 45.6594C175.622 45.5614 175.779 45.4243 175.897 45.2479C175.916 45.2283 175.975 45.2479 176.034 45.2871C176.112 45.3459 176.171 45.4243 176.249 45.5223C176.328 45.6202 176.367 45.777 176.367 45.9534C176.367 46.0905 176.347 46.2081 176.288 46.3453C176.23 46.4629 176.151 46.5805 176.014 46.698C175.857 46.8352 175.661 46.9528 175.407 47.0508C175.152 47.1291 174.858 47.1879 174.505 47.1879V47.1096Z" fill="#7F36FF"/>
<path d="M179.424 46.9528C179.208 46.9528 179.032 46.894 178.895 46.796C178.758 46.698 178.679 46.4825 178.679 46.1885V38.9967C178.679 38.9967 178.738 38.9379 178.856 38.8791C178.973 38.8203 179.11 38.8007 179.287 38.8007C179.483 38.8007 179.659 38.8595 179.855 38.9575C180.051 39.0554 180.169 39.271 180.247 39.6041C180.267 39.6825 180.286 39.7609 180.306 39.8785C180.306 39.9765 180.306 40.0941 180.306 40.2116V43.3862V46.2081C180.306 46.5021 180.227 46.7176 180.09 46.8156C179.953 46.9332 179.777 46.9724 179.561 46.9724H179.385L179.424 46.9528ZM179.914 41.2502L180.325 40.192C180.502 39.7021 180.756 39.3298 181.09 39.0751C181.423 38.8203 181.834 38.6831 182.363 38.6831C182.638 38.6831 182.873 38.7223 183.069 38.8007C183.265 38.8791 183.422 39.0163 183.52 39.173C183.618 39.3298 183.676 39.5258 183.676 39.7413C183.676 39.8981 183.657 40.0353 183.598 40.1333C183.539 40.2312 183.5 40.3292 183.422 40.4076C183.363 40.486 183.304 40.5252 183.265 40.5644C183.206 40.584 183.186 40.6036 183.167 40.584C183.049 40.486 182.892 40.4076 182.736 40.3292C182.559 40.2704 182.383 40.2312 182.148 40.2312C181.501 40.2312 181.031 40.5252 180.756 41.0935C180.482 41.6618 180.325 42.426 180.325 43.3471L179.914 41.2306V41.2502Z" fill="#7F36FF"/>
<path d="M187.87 47.0703C187.008 47.0703 186.341 46.8548 185.871 46.4433C185.381 46.0317 185.146 45.4635 185.146 44.7972C185.146 44.1701 185.342 43.6606 185.734 43.2883C186.126 42.9159 186.733 42.6024 187.517 42.4064C188.321 42.2105 189.32 42.1125 190.515 42.0733H190.731V41.9165C190.731 41.309 190.555 40.8387 190.221 40.5252C189.888 40.2116 189.398 40.0353 188.752 40.0353C188.105 40.0353 187.654 40.1725 187.282 40.4468C186.91 40.7211 186.635 41.0347 186.459 41.407C186.322 41.407 186.204 41.407 186.106 41.3678C186.008 41.3286 185.91 41.2894 185.793 41.2503C185.675 41.2111 185.597 41.1131 185.538 41.0151C185.479 40.9171 185.44 40.7799 185.44 40.6232C185.44 40.4664 185.479 40.3096 185.577 40.1333C185.675 39.9569 185.812 39.8001 185.989 39.6238C186.263 39.369 186.655 39.1534 187.125 38.9771C187.615 38.8007 188.183 38.7027 188.869 38.7027C189.634 38.7027 190.261 38.8203 190.79 39.0751C191.319 39.3298 191.711 39.6825 191.966 40.1725C192.24 40.6428 192.357 41.2306 192.357 41.8969V46.8156C192.357 46.8156 192.299 46.894 192.181 46.9332C192.063 46.9724 191.926 46.992 191.77 46.992C191.554 46.992 191.358 46.9332 191.182 46.8156C191.005 46.698 190.888 46.5217 190.829 46.2473C190.829 46.1689 190.809 46.0905 190.79 45.9926C190.79 45.9142 190.77 45.7966 190.77 45.6986C190.574 45.9926 190.319 46.2277 190.025 46.4433C189.732 46.6392 189.398 46.8156 189.046 46.9136C188.693 47.0312 188.301 47.0703 187.889 47.0703H187.87ZM188.262 45.8946C188.732 45.8946 189.163 45.7966 189.536 45.6202C189.908 45.4439 190.202 45.1891 190.417 44.856C190.633 44.5228 190.731 44.1505 190.731 43.739V43.1315H190.28C189.496 43.1707 188.85 43.2491 188.321 43.3666C187.791 43.4842 187.4 43.6606 187.145 43.8762C186.87 44.0917 186.753 44.3857 186.753 44.758C186.753 45.1303 186.89 45.4047 187.145 45.6006C187.419 45.8162 187.791 45.9142 188.262 45.9142V45.8946Z" fill="#7F36FF"/>
<path d="M198.08 47.1096C197.531 47.1096 197.08 47.0116 196.727 46.8156C196.375 46.6196 196.1 46.3257 195.943 45.9338C195.787 45.5418 195.689 45.0519 195.689 44.4836V40.2508H195.101C194.846 40.2508 194.67 40.192 194.552 40.0941C194.435 39.9961 194.395 39.8393 194.395 39.6434V39.5258C194.395 39.3298 194.454 39.173 194.552 39.0751C194.65 38.9771 194.846 38.9183 195.101 38.9183H195.689V37.6837C195.689 37.3898 195.748 37.1938 195.885 37.0762C196.022 36.9587 196.198 36.8999 196.414 36.8999H196.571C196.786 36.8999 196.963 36.9586 197.1 37.0566C197.237 37.1546 197.296 37.3702 197.296 37.6837V38.9183H199.118C199.373 38.9183 199.549 38.9771 199.667 39.0751C199.765 39.173 199.824 39.3298 199.824 39.5258V39.6434C199.824 39.8589 199.765 40.0157 199.647 40.1137C199.53 40.2116 199.353 40.2704 199.098 40.2704H197.276V44.3269C197.276 44.8364 197.354 45.2087 197.511 45.4439C197.668 45.679 197.942 45.8162 198.334 45.8162C198.589 45.8162 198.805 45.7574 199.001 45.6594C199.196 45.5614 199.353 45.4243 199.471 45.2479C199.49 45.2283 199.549 45.2479 199.608 45.2871C199.686 45.3459 199.745 45.4243 199.824 45.5223C199.902 45.6202 199.941 45.777 199.941 45.9534C199.941 46.0905 199.922 46.2081 199.863 46.3453C199.804 46.4629 199.726 46.5805 199.588 46.698C199.432 46.8352 199.236 46.9528 198.981 47.0508C198.726 47.1291 198.432 47.1879 198.08 47.1879V47.1096Z" fill="#7F36FF"/>
<path d="M205.683 47.1095C204.84 47.1095 204.096 46.9332 203.469 46.5804C202.841 46.2277 202.332 45.7378 201.979 45.1107C201.626 44.4836 201.45 43.7586 201.45 42.9159C201.45 42.0733 201.626 41.3874 201.979 40.7407C202.332 40.0941 202.822 39.6041 203.429 39.2318C204.037 38.8595 204.742 38.6635 205.546 38.6635C206.349 38.6635 206.996 38.8399 207.564 39.173C208.132 39.5062 208.583 39.9765 208.897 40.584C209.21 41.1915 209.387 41.8969 209.387 42.7004V42.8375C209.387 43.0139 209.347 43.1315 209.269 43.2099C209.191 43.2883 209.073 43.3079 208.877 43.3079H202.959C202.959 43.3079 202.959 43.4058 202.959 43.445C202.959 43.4842 202.959 43.543 202.979 43.6018C203.057 44.0329 203.214 44.4248 203.469 44.7384C203.704 45.0715 204.017 45.3263 204.409 45.5026C204.801 45.679 205.213 45.777 205.683 45.777C206.153 45.777 206.545 45.7182 206.859 45.6006C207.192 45.483 207.447 45.3263 207.662 45.1107C207.878 44.9147 208.054 44.6992 208.191 44.4444C208.191 44.4444 208.25 44.4444 208.348 44.4444C208.426 44.464 208.544 44.5032 208.642 44.562C208.74 44.6208 208.858 44.6992 208.936 44.8168C209.014 44.9344 209.053 45.0715 209.053 45.2479C209.053 45.4243 208.975 45.6202 208.818 45.8162C208.662 46.0121 208.446 46.2277 208.172 46.4041C207.878 46.5804 207.525 46.7372 207.113 46.8548C206.682 46.992 206.212 47.0508 205.644 47.0508L205.683 47.1095ZM207.799 42.2105C207.78 41.7402 207.662 41.3482 207.466 40.9955C207.27 40.6623 207.015 40.388 206.682 40.2116C206.349 40.0157 205.977 39.9373 205.526 39.9373C205.075 39.9373 204.703 40.0353 204.331 40.2312C203.978 40.4272 203.684 40.7016 203.449 41.0347C203.214 41.3678 203.057 41.7793 202.998 42.2105H207.799ZM204.135 37.6445C204.135 37.6445 204.096 37.6445 204.076 37.6445C204.056 37.6445 204.037 37.6445 204.017 37.6249C204.017 37.6249 204.017 37.6053 204.017 37.5661C204.017 37.5073 204.056 37.3898 204.154 37.1938C204.252 36.9978 204.37 36.7627 204.527 36.5079C204.684 36.2532 204.86 35.9984 205.075 35.7437C205.291 35.5085 205.507 35.293 205.742 35.1362C205.977 34.9794 206.212 34.901 206.467 34.901C206.722 34.901 206.878 34.9794 206.996 35.1166C207.113 35.2538 207.172 35.4497 207.172 35.6457C207.172 35.8809 207.074 36.116 206.898 36.3316C206.702 36.5471 206.467 36.7235 206.173 36.8803C205.879 37.037 205.585 37.1742 205.291 37.2918C204.997 37.4094 204.742 37.4877 204.527 37.5465C204.311 37.6053 204.174 37.6445 204.135 37.6445Z" fill="#7F36FF"/>
<path d="M214.795 50.4017C213.443 50.4017 212.463 50.2254 211.817 49.853C211.17 49.4807 210.856 48.932 210.856 48.1873C210.856 47.7954 210.974 47.4623 211.19 47.1487C211.405 46.8548 211.719 46.6001 212.111 46.4041C212.502 46.2081 212.934 46.071 213.404 45.9926C213.306 45.9142 213.228 45.7966 213.169 45.679C213.11 45.5614 213.09 45.4047 213.09 45.2479C213.09 45.0911 213.13 44.9148 213.208 44.7776C213.286 44.6208 213.404 44.5033 213.541 44.3857C212.894 44.1897 212.385 43.837 212.013 43.3667C211.64 42.8963 211.444 42.3477 211.444 41.7206C211.444 41.1523 211.601 40.6428 211.895 40.1921C212.189 39.7413 212.6 39.369 213.11 39.0947C213.619 38.8203 214.227 38.6831 214.874 38.6831C215.226 38.6831 215.559 38.7223 215.893 38.8007C216.226 38.8791 216.52 38.9967 216.794 39.1535L217.225 38.3892C217.362 38.1736 217.5 37.9973 217.637 37.8993C217.774 37.8013 217.97 37.7425 218.166 37.7425C218.323 37.7425 218.46 37.7817 218.558 37.8405C218.675 37.8993 218.754 37.9777 218.832 38.0757C218.91 38.1736 218.95 38.252 218.989 38.3108C219.008 38.3892 219.028 38.4284 219.008 38.4284L217.637 39.8393C217.852 40.0745 218.029 40.3488 218.146 40.6624C218.264 40.9759 218.323 41.2894 218.323 41.6226C218.323 42.1713 218.166 42.6808 217.872 43.1119C217.578 43.543 217.166 43.8958 216.657 44.1505C216.128 44.4053 215.54 44.5228 214.854 44.5228H214.56C214.56 44.5228 214.501 44.6208 214.501 44.66C214.501 44.6992 214.501 44.758 214.501 44.8168C214.501 44.9736 214.58 45.1107 214.756 45.2087C214.913 45.3067 215.168 45.3851 215.481 45.4439C215.795 45.5027 216.206 45.6006 216.657 45.7182C217.029 45.8162 217.402 45.9534 217.754 46.1297C218.107 46.3061 218.401 46.5217 218.636 46.8156C218.871 47.1096 218.989 47.4623 218.989 47.913C218.989 48.4029 218.832 48.8536 218.499 49.2064C218.166 49.5787 217.695 49.853 217.068 50.049C216.441 50.245 215.697 50.343 214.795 50.343V50.4017ZM214.834 49.2652C215.638 49.2652 216.285 49.1476 216.716 48.932C217.166 48.7165 217.382 48.4029 217.382 48.011C217.382 47.7954 217.304 47.6191 217.166 47.5015C217.01 47.3643 216.814 47.2663 216.579 47.1683C216.343 47.09 216.069 47.0116 215.755 46.9332C215.618 46.894 215.481 46.8744 215.344 46.8352C215.207 46.796 215.07 46.7764 214.913 46.7372C214.462 46.7568 214.051 46.8352 213.659 46.9528C213.286 47.0704 212.973 47.2271 212.757 47.4231C212.522 47.6191 212.424 47.8738 212.424 48.1482C212.424 48.5009 212.62 48.7752 213.032 48.9712C213.443 49.1672 214.031 49.2652 214.815 49.2652H214.834ZM214.893 43.5038C215.266 43.5038 215.579 43.4254 215.873 43.2883C216.167 43.1511 216.383 42.916 216.539 42.6416C216.696 42.3673 216.774 42.0537 216.774 41.701C216.774 41.3482 216.696 41.0347 216.539 40.7604C216.383 40.486 216.147 40.2704 215.873 40.1137C215.599 39.9569 215.266 39.8785 214.874 39.8785C214.521 39.8785 214.207 39.9569 213.913 40.0941C213.639 40.2508 213.404 40.4468 213.267 40.7212C213.13 40.9955 213.032 41.309 213.032 41.6814C213.032 42.0537 213.11 42.3477 213.267 42.622C213.423 42.8964 213.659 43.1119 213.933 43.2687C214.207 43.4255 214.54 43.4842 214.913 43.4842L214.893 43.5038Z" fill="#7F36FF"/>
<path d="M221.909 37.2722C221.595 37.2722 221.36 37.1938 221.184 37.0175C221.007 36.8411 220.929 36.6059 220.929 36.3316C220.929 36.0572 221.007 35.8025 221.203 35.6261C221.399 35.4497 221.634 35.3714 221.928 35.3714C222.222 35.3714 222.477 35.4497 222.653 35.6261C222.83 35.8025 222.908 36.0376 222.908 36.3316C222.908 36.6255 222.83 36.8607 222.653 37.0371C222.497 37.1938 222.242 37.2918 221.928 37.2918L221.909 37.2722ZM221.811 46.9528C221.595 46.9528 221.419 46.894 221.282 46.796C221.144 46.6784 221.066 46.4825 221.066 46.1885V39.6042C221.066 39.3102 221.144 39.0947 221.282 38.9771C221.419 38.8595 221.595 38.8007 221.811 38.8007H221.967C222.183 38.8007 222.359 38.8595 222.497 38.9575C222.634 39.0751 222.693 39.271 222.693 39.5846V46.1689C222.693 46.4629 222.634 46.6784 222.497 46.7764C222.359 46.894 222.183 46.9332 221.967 46.9332H221.811V46.9528Z" fill="#7F36FF"/>
<path d="M229.394 47.1096C228.552 47.1096 227.807 46.9332 227.18 46.5805C226.553 46.2277 226.043 45.7378 225.691 45.1107C225.338 44.4837 225.162 43.7586 225.162 42.916C225.162 42.0733 225.338 41.3874 225.691 40.7408C226.043 40.0941 226.533 39.6042 227.141 39.2318C227.748 38.8595 228.454 38.6636 229.257 38.6636C230.061 38.6636 230.707 38.8399 231.276 39.1731C231.844 39.5062 232.295 39.9765 232.608 40.584C232.922 41.1915 233.098 41.8969 233.098 42.7004V42.8376C233.098 43.0139 233.059 43.1315 233 43.2099C232.941 43.2883 232.804 43.3079 232.608 43.3079H226.69C226.69 43.3079 226.69 43.4059 226.69 43.4451C226.69 43.5038 226.69 43.543 226.71 43.6018C226.788 44.0329 226.945 44.4249 227.2 44.7384C227.454 45.052 227.748 45.3263 228.14 45.5027C228.532 45.679 228.944 45.777 229.414 45.777C229.884 45.777 230.276 45.7182 230.59 45.6006C230.923 45.4831 231.178 45.3263 231.393 45.1107C231.609 44.9148 231.785 44.6992 231.922 44.4445C231.922 44.4445 231.981 44.4445 232.079 44.4445C232.157 44.4641 232.275 44.5033 232.373 44.562C232.471 44.6208 232.589 44.6992 232.667 44.8168C232.745 44.9344 232.785 45.0715 232.785 45.2479C232.785 45.4243 232.706 45.6202 232.549 45.8162C232.393 46.0122 232.177 46.2277 231.883 46.4041C231.589 46.5805 231.236 46.7372 230.825 46.8548C230.394 46.992 229.923 47.0508 229.355 47.0508L229.394 47.1096ZM231.511 42.2105C231.491 41.7402 231.374 41.3482 231.178 40.9955C230.982 40.6428 230.727 40.388 230.394 40.2117C230.061 40.0157 229.688 39.9373 229.238 39.9373C228.787 39.9373 228.415 40.0353 228.042 40.2313C227.689 40.4272 227.396 40.7016 227.16 41.0347C226.925 41.3678 226.768 41.7794 226.71 42.2105H231.511Z" fill="#7F36FF"/>
<path d="M164.923 63.1785C164.139 63.1785 163.472 63.061 162.885 62.8062C162.297 62.5515 161.846 62.1791 161.513 61.6892C161.18 61.1993 161.023 60.6114 161.023 59.9255C161.023 59.3964 161.121 58.9261 161.356 58.5342C161.572 58.1423 161.885 57.7895 162.297 57.5152C162.708 57.2408 163.178 57.0057 163.747 56.8489C163.472 56.555 163.257 56.2414 163.081 55.8691C162.904 55.5164 162.806 55.1048 162.806 54.6541C162.806 54.1642 162.924 53.6939 163.198 53.302C163.453 52.8905 163.806 52.5769 164.256 52.3418C164.707 52.1066 165.236 51.989 165.824 51.989C166.373 51.989 166.843 52.1066 167.274 52.3222C167.705 52.5377 168.019 52.8317 168.274 53.2236C168.509 53.6155 168.626 54.0466 168.626 54.5366C168.626 54.9677 168.528 55.34 168.332 55.6731C168.136 56.0063 167.862 56.3002 167.49 56.555C167.117 56.7901 166.667 57.0057 166.118 57.1625L168.646 59.4356C168.763 59.2201 168.881 58.9849 168.979 58.7694C169.077 58.5342 169.155 58.2991 169.253 58.0443C169.332 57.7895 169.41 57.5348 169.469 57.2604C169.567 56.9077 169.704 56.653 169.861 56.5354C170.018 56.3982 170.194 56.3394 170.429 56.3394C170.605 56.3394 170.743 56.3786 170.841 56.4374C170.939 56.4962 171.037 56.5746 171.095 56.6529C171.154 56.7313 171.174 56.7901 171.154 56.8097C171.017 57.4956 170.801 58.1227 170.547 58.7302C170.292 59.3377 169.998 59.8863 169.645 60.3763L171.918 62.4143C171.918 62.4143 171.918 62.4731 171.918 62.5318C171.899 62.6102 171.84 62.6886 171.781 62.767C171.703 62.865 171.605 62.9238 171.487 63.0022C171.37 63.0805 171.213 63.1001 171.017 63.1001C170.88 63.1001 170.703 63.061 170.527 63.0022C170.351 62.9434 170.155 62.8062 169.939 62.5906C169.743 62.3947 169.567 62.2183 169.371 62.0419C169.175 61.8656 168.979 61.6696 168.803 61.4932C168.313 62.0419 167.725 62.4535 167.098 62.767C166.451 63.0805 165.765 63.2177 165.001 63.2177L164.923 63.1785ZM165.04 61.8852C165.589 61.8852 166.079 61.7676 166.549 61.5128C167.019 61.2777 167.411 60.9446 167.764 60.5526L164.531 57.6328C164.158 57.7503 163.825 57.9071 163.531 58.1031C163.257 58.299 163.022 58.5342 162.865 58.8086C162.708 59.0829 162.63 59.416 162.63 59.808C162.63 60.4546 162.845 60.9837 163.296 61.3365C163.747 61.6892 164.335 61.8852 165.04 61.8852ZM165.177 56.3982C165.628 56.261 166 56.1239 166.294 55.9475C166.588 55.7907 166.804 55.5752 166.941 55.3596C167.078 55.1244 167.157 54.8697 167.157 54.5757C167.157 54.3014 167.098 54.0662 166.98 53.8703C166.863 53.6743 166.686 53.4979 166.49 53.3804C166.294 53.2628 166.04 53.204 165.765 53.204C165.295 53.204 164.923 53.3412 164.687 53.6351C164.452 53.9095 164.315 54.2622 164.315 54.6541C164.315 55.0069 164.393 55.3008 164.531 55.5948C164.687 55.8691 164.903 56.1435 165.177 56.4178V56.3982Z" fill="#7F36FF"/>
<path d="M181.305 63.1785C180.502 63.1785 179.796 63.0021 179.169 62.6298C178.542 62.2771 178.052 61.7676 177.68 61.1405C177.307 60.5134 177.131 59.7688 177.131 58.9457C177.131 58.1227 177.307 57.4172 177.68 56.7901C178.052 56.163 178.542 55.6535 179.169 55.3008C179.796 54.9481 180.502 54.7521 181.305 54.7521C181.913 54.7521 182.422 54.8305 182.853 54.9873C183.284 55.144 183.637 55.34 183.911 55.5751C184.186 55.7907 184.401 56.0455 184.519 56.3002C184.656 56.555 184.715 56.7705 184.715 56.9665C184.715 57.1233 184.676 57.2604 184.578 57.378C184.48 57.4956 184.362 57.5544 184.245 57.6132C184.107 57.672 184.009 57.7111 183.911 57.7111C183.813 57.7111 183.755 57.7111 183.735 57.7111C183.617 57.4172 183.461 57.1429 183.245 56.9077C183.03 56.6725 182.794 56.4962 182.481 56.3394C182.167 56.2022 181.775 56.1238 181.325 56.1238C180.835 56.1238 180.384 56.2414 179.992 56.4962C179.6 56.7509 179.287 57.0645 179.052 57.4956C178.816 57.9267 178.699 58.397 178.699 58.9457C178.699 59.4944 178.816 59.9843 179.032 60.4154C179.267 60.8466 179.581 61.1797 179.973 61.4344C180.364 61.6696 180.815 61.8068 181.325 61.8068C181.775 61.8068 182.167 61.7284 182.481 61.5912C182.794 61.454 183.049 61.2581 183.265 61.0229C183.461 60.7878 183.637 60.5134 183.755 60.2391C183.755 60.2195 183.833 60.2195 183.931 60.2391C184.029 60.2587 184.147 60.2783 184.264 60.3371C184.382 60.3958 184.499 60.4742 184.597 60.5722C184.695 60.6702 184.734 60.827 184.734 61.0033C184.734 61.1797 184.676 61.3953 184.539 61.65C184.401 61.9048 184.186 62.1399 183.911 62.3751C183.637 62.6102 183.284 62.8062 182.853 62.963C182.422 63.1197 181.913 63.1981 181.325 63.1981L181.305 63.1785Z" fill="#7F36FF"/>
<path d="M187.733 63.0217C187.517 63.0217 187.341 62.963 187.204 62.865C187.066 62.7474 186.988 62.5514 186.988 62.2575V55.0656C186.988 55.0656 187.047 55.0069 187.164 54.9481C187.282 54.8893 187.419 54.8697 187.596 54.8697C187.791 54.8697 187.968 54.9285 188.164 55.0265C188.36 55.1244 188.497 55.34 188.556 55.6731C188.575 55.7515 188.595 55.8299 188.615 55.9475C188.634 56.0651 188.615 56.163 188.615 56.2806V59.4552V62.2771C188.615 62.571 188.536 62.7866 188.399 62.8846C188.262 62.9825 188.085 63.0413 187.87 63.0413H187.694L187.733 63.0217ZM188.242 57.3192L188.634 56.261C188.81 55.7711 189.065 55.3988 189.398 55.144C189.732 54.8893 190.143 54.7521 190.672 54.7521C190.947 54.7521 191.182 54.7913 191.378 54.8697C191.574 54.9481 191.73 55.0852 191.828 55.242C191.926 55.3988 191.985 55.5947 191.985 55.8103C191.985 55.9671 191.965 56.1042 191.907 56.2022C191.848 56.3198 191.809 56.3982 191.73 56.4766C191.672 56.555 191.613 56.5942 191.574 56.6334C191.515 56.6529 191.495 56.6725 191.476 56.6529C191.358 56.555 191.201 56.4766 191.044 56.3982C190.888 56.3394 190.692 56.3002 190.457 56.3002C189.81 56.3002 189.359 56.5942 189.065 57.1624C188.791 57.7307 188.634 58.495 188.634 59.416L188.223 57.2996L188.242 57.3192Z" fill="#7F36FF"/>
<path d="M197.413 63.1785C196.57 63.1785 195.826 63.0022 195.199 62.6494C194.572 62.2967 194.062 61.8068 193.709 61.1797C193.357 60.5526 193.18 59.8276 193.18 58.9849C193.18 58.1423 193.357 57.4564 193.709 56.8097C194.062 56.1631 194.552 55.6732 195.16 55.3008C195.767 54.9285 196.473 54.7325 197.276 54.7325C198.079 54.7325 198.726 54.9089 199.294 55.242C199.863 55.5752 200.313 56.0455 200.627 56.653C200.941 57.2605 201.117 57.9659 201.117 58.7694V58.9065C201.117 59.0829 201.078 59.2005 200.999 59.2789C200.921 59.3573 200.803 59.3769 200.607 59.3769H194.689C194.689 59.3769 194.689 59.4748 194.689 59.514C194.689 59.5532 194.689 59.612 194.709 59.6708C194.787 60.1019 194.944 60.4938 195.199 60.8074C195.434 61.1405 195.747 61.3953 196.139 61.5716C196.531 61.748 196.943 61.846 197.413 61.846C197.883 61.846 198.275 61.7872 198.589 61.6696C198.922 61.5521 199.177 61.3953 199.392 61.1797C199.608 60.9838 199.784 60.7682 199.921 60.5134C199.921 60.5134 199.98 60.5134 200.078 60.5134C200.157 60.533 200.274 60.5722 200.372 60.631C200.47 60.6898 200.588 60.7682 200.666 60.8858C200.745 61.0034 200.784 61.1405 200.784 61.3169C200.784 61.4933 200.705 61.6892 200.549 61.8852C200.392 62.0812 200.176 62.2967 199.902 62.4731C199.608 62.6494 199.255 62.8062 198.844 62.9238C198.413 63.061 197.942 63.1198 197.374 63.1198L197.413 63.1785ZM199.53 58.2795C199.51 57.8092 199.392 57.4172 199.196 57.0645C199 56.7314 198.746 56.457 198.413 56.2806C198.079 56.0847 197.707 56.0063 197.256 56.0063C196.806 56.0063 196.433 56.1043 196.061 56.3002C195.708 56.4962 195.414 56.7706 195.179 57.1037C194.944 57.4368 194.787 57.8483 194.728 58.2795H199.53ZM195.865 53.7135C195.865 53.7135 195.826 53.7135 195.806 53.7135C195.787 53.7135 195.767 53.7135 195.747 53.6939C195.747 53.6939 195.747 53.6743 195.747 53.6351C195.747 53.5764 195.787 53.4588 195.885 53.2628C195.983 53.0668 196.1 52.8317 196.257 52.5769C196.414 52.3222 196.59 52.0674 196.806 51.8127C197.021 51.5775 197.237 51.362 197.472 51.2052C197.707 51.0484 197.942 50.97 198.197 50.97C198.452 50.97 198.609 51.0484 198.726 51.1856C198.844 51.3228 198.902 51.5187 198.902 51.7147C198.902 51.9499 198.804 52.185 198.628 52.4006C198.432 52.6161 198.197 52.7925 197.903 52.9493C197.609 53.106 197.315 53.2432 197.021 53.3608C196.727 53.4784 196.473 53.5568 196.257 53.6155C196.041 53.6743 195.904 53.7135 195.865 53.7135Z" fill="#7F36FF"/>
<path d="M205.761 63.1393C204.899 63.1393 204.233 62.9238 203.762 62.5123C203.273 62.1007 203.037 61.5324 203.037 60.8662C203.037 60.2391 203.233 59.7296 203.625 59.3572C204.017 58.9849 204.625 58.6714 205.409 58.4754C206.212 58.2794 207.211 58.1815 208.407 58.1423H208.622V57.9855C208.622 57.378 208.446 56.9077 208.113 56.5942C207.78 56.2806 207.29 56.1042 206.643 56.1042C205.996 56.1042 205.546 56.2414 205.173 56.5158C204.801 56.7901 204.527 57.1037 204.35 57.476C204.213 57.476 204.096 57.476 203.998 57.4368C203.9 57.3976 203.802 57.3584 203.684 57.3192C203.566 57.28 203.488 57.182 203.429 57.0841C203.371 56.9861 203.331 56.8489 203.331 56.6921C203.331 56.5354 203.371 56.3786 203.469 56.2022C203.566 56.0259 203.704 55.8691 203.88 55.6927C204.154 55.438 204.546 55.2224 205.017 55.046C205.507 54.8697 206.075 54.7717 206.761 54.7717C207.525 54.7717 208.152 54.8893 208.681 55.144C209.21 55.3988 209.602 55.7515 209.857 56.2414C210.131 56.7117 210.249 57.2996 210.249 57.9659V62.8846C210.249 62.8846 210.19 62.963 210.072 63.0022C209.955 63.0414 209.818 63.0609 209.661 63.0609C209.445 63.0609 209.249 63.0021 209.073 62.8846C208.897 62.767 208.779 62.5906 208.72 62.3163C208.72 62.2379 208.701 62.1595 208.681 62.0615C208.681 61.9831 208.662 61.8656 208.662 61.7676C208.466 62.0615 208.211 62.2967 207.917 62.5123C207.623 62.7082 207.29 62.8846 206.937 62.9826C206.584 63.1001 206.192 63.1393 205.781 63.1393H205.761ZM206.153 61.9636C206.624 61.9636 207.055 61.8656 207.427 61.6892C207.799 61.5128 208.093 61.2581 208.309 60.9249C208.524 60.5918 208.622 60.2195 208.622 59.808V59.2005H208.172C207.388 59.2397 206.741 59.3181 206.212 59.4356C205.683 59.5532 205.291 59.7296 205.036 59.9451C204.762 60.1607 204.644 60.4546 204.644 60.827C204.644 61.1993 204.781 61.4736 205.036 61.6696C205.311 61.8852 205.683 61.9831 206.153 61.9831V61.9636Z" fill="#7F36FF"/>
<path d="M215.971 63.1785C215.422 63.1785 214.972 63.0805 214.619 62.8846C214.266 62.6886 213.992 62.3947 213.835 62.0027C213.678 61.6108 213.58 61.1209 213.58 60.5526V56.3198H212.992C212.738 56.3198 212.561 56.261 212.444 56.163C212.326 56.0651 212.287 55.9083 212.287 55.7123V55.5948C212.287 55.3988 212.346 55.242 212.444 55.144C212.542 55.0461 212.738 54.9873 212.992 54.9873H213.58V53.7527C213.58 53.4588 213.639 53.2628 213.776 53.1452C213.913 53.0276 214.09 52.9688 214.305 52.9688H214.462C214.678 52.9688 214.854 53.0276 214.991 53.1256C215.128 53.2236 215.187 53.4392 215.187 53.7527V54.9873H217.01C217.264 54.9873 217.441 55.0461 217.558 55.144C217.656 55.242 217.715 55.3988 217.715 55.5948V55.7123C217.715 55.9279 217.656 56.0847 217.539 56.1826C217.421 56.2806 217.245 56.3394 216.99 56.3394H215.167V60.3958C215.167 60.9054 215.246 61.2777 215.403 61.5128C215.559 61.748 215.834 61.8852 216.226 61.8852C216.48 61.8852 216.696 61.8264 216.892 61.7284C217.088 61.6304 217.245 61.4932 217.362 61.3169C217.382 61.2973 217.441 61.3169 217.499 61.3561C217.578 61.4149 217.637 61.4932 217.715 61.5912C217.793 61.6892 217.833 61.846 217.833 62.0223C217.833 62.1595 217.813 62.2771 217.754 62.4143C217.695 62.5318 217.617 62.6494 217.48 62.767C217.323 62.9042 217.127 63.0218 216.872 63.1197C216.618 63.1981 216.324 63.2569 215.971 63.2569V63.1785Z" fill="#7F36FF"/>
<path d="M220.988 53.3412C220.674 53.3412 220.439 53.2628 220.263 53.0864C220.086 52.9101 220.008 52.6749 220.008 52.4006C220.008 52.1262 220.106 51.8715 220.282 51.6951C220.459 51.5187 220.694 51.4403 221.007 51.4403C221.321 51.4403 221.556 51.5187 221.732 51.6951C221.909 51.8715 221.987 52.1066 221.987 52.4006C221.987 52.6945 221.909 52.9297 221.732 53.106C221.576 53.2628 221.321 53.3608 221.007 53.3608L220.988 53.3412ZM220.89 63.0218C220.674 63.0218 220.498 62.963 220.361 62.865C220.223 62.7474 220.145 62.5514 220.145 62.2575V55.6731C220.145 55.3792 220.223 55.1636 220.361 55.0461C220.498 54.9285 220.674 54.8697 220.89 54.8697H221.046C221.262 54.8697 221.438 54.9285 221.576 55.0265C221.713 55.144 221.772 55.34 221.772 55.6535V62.2379C221.772 62.5319 221.713 62.7474 221.576 62.8454C221.438 62.963 221.262 63.0022 221.046 63.0022H220.89V63.0218Z" fill="#7F36FF"/>
<path d="M227.925 63.0609C227.729 63.0609 227.572 63.0609 227.454 63.0217C227.317 63.0021 227.219 62.9434 227.141 62.865C227.062 62.7866 226.984 62.6886 226.925 62.571L223.966 55.34C223.966 55.34 223.966 55.2616 224.064 55.1832C224.143 55.1048 224.241 55.0265 224.378 54.9677C224.515 54.9089 224.672 54.8697 224.848 54.8697C225.083 54.8697 225.279 54.9285 225.436 55.0656C225.593 55.2028 225.75 55.4576 225.887 55.8495L227.905 61.4932L229.982 55.8495C230.12 55.4576 230.276 55.2028 230.433 55.0656C230.59 54.9285 230.786 54.8697 231.001 54.8697C231.178 54.8697 231.334 54.9089 231.452 54.9677C231.57 55.0265 231.687 55.1048 231.746 55.1832C231.824 55.2616 231.844 55.3204 231.844 55.34L228.924 62.5318C228.885 62.6494 228.807 62.7474 228.709 62.8258C228.611 62.9042 228.493 62.963 228.375 62.9825C228.238 63.0217 228.081 63.0413 227.905 63.0413L227.925 63.0609Z" fill="#7F36FF"/>
<path d="M234.901 53.3412C234.587 53.3412 234.352 53.2628 234.176 53.0864C234 52.9101 233.921 52.6749 233.921 52.4006C233.921 52.1262 234.019 51.8715 234.196 51.6951C234.372 51.5187 234.627 51.4403 234.94 51.4403C235.254 51.4403 235.489 51.5187 235.665 51.6951C235.822 51.8715 235.92 52.1066 235.92 52.4006C235.92 52.6945 235.842 52.9297 235.665 53.106C235.489 53.2628 235.254 53.3608 234.921 53.3608L234.901 53.3412ZM234.803 63.0218C234.587 63.0218 234.411 62.963 234.274 62.865C234.137 62.767 234.058 62.5514 234.058 62.2575V55.6731C234.058 55.3792 234.137 55.1636 234.274 55.0461C234.411 54.9285 234.587 54.8697 234.803 54.8697H234.979C235.195 54.8697 235.371 54.9285 235.509 55.0265C235.646 55.1244 235.704 55.34 235.704 55.6535V62.2379C235.704 62.5319 235.646 62.7474 235.509 62.8454C235.371 62.9434 235.195 63.0022 234.979 63.0022H234.803V63.0218Z" fill="#7F36FF"/>
<path d="M241.76 63.1785C241.211 63.1785 240.76 63.0805 240.408 62.8846C240.055 62.6886 239.78 62.3947 239.624 62.0027C239.467 61.6108 239.369 61.1209 239.369 60.5526V56.3198H238.781C238.526 56.3198 238.35 56.261 238.232 56.163C238.115 56.0651 238.056 55.9083 238.056 55.7123V55.5948C238.056 55.3988 238.115 55.242 238.232 55.144C238.35 55.0461 238.526 54.9873 238.781 54.9873H239.369V53.7527C239.369 53.4588 239.428 53.2628 239.565 53.1452C239.702 53.0276 239.878 52.9688 240.094 52.9688H240.27C240.486 52.9688 240.662 53.0276 240.8 53.1256C240.917 53.2236 240.995 53.4392 240.995 53.7527V54.9873H242.818C243.073 54.9873 243.249 55.0461 243.367 55.144C243.465 55.242 243.523 55.3988 243.523 55.5948V55.7123C243.523 55.9279 243.465 56.0847 243.367 56.1826C243.269 56.2806 243.073 56.3394 242.818 56.3394H240.995V60.3958C240.995 60.9054 241.074 61.2777 241.231 61.5128C241.387 61.748 241.662 61.8852 242.054 61.8852C242.308 61.8852 242.524 61.8264 242.72 61.7284C242.916 61.6304 243.073 61.4932 243.19 61.3169C243.21 61.2973 243.269 61.3169 243.327 61.3561C243.386 61.3953 243.465 61.4932 243.543 61.5912C243.621 61.6892 243.661 61.846 243.661 62.0223C243.661 62.1595 243.641 62.2771 243.582 62.4143C243.523 62.5514 243.445 62.6494 243.308 62.767C243.151 62.9042 242.955 63.0218 242.7 63.1197C242.446 63.1981 242.152 63.2569 241.799 63.2569L241.76 63.1785Z" fill="#7F36FF"/>
<path d="M249.383 63.1785C248.54 63.1785 247.795 63.0022 247.168 62.6494C246.541 62.2967 246.051 61.8068 245.679 61.1797C245.307 60.5526 245.15 59.8276 245.15 58.9849C245.15 58.1423 245.326 57.4564 245.679 56.8097C246.032 56.1631 246.522 55.6732 247.129 55.3008C247.737 54.9285 248.442 54.7325 249.226 54.7325C250.01 54.7325 250.676 54.9089 251.244 55.242C251.813 55.5752 252.263 56.0455 252.577 56.653C252.89 57.2605 253.067 57.9659 253.067 58.7694V58.9065C253.067 59.0829 253.028 59.2005 252.949 59.2789C252.871 59.3573 252.753 59.3769 252.557 59.3769H246.639C246.639 59.3769 246.639 59.4748 246.639 59.514C246.639 59.5728 246.639 59.612 246.659 59.6708C246.737 60.1019 246.894 60.4938 247.149 60.8074C247.403 61.1209 247.717 61.3953 248.089 61.5716C248.481 61.748 248.893 61.846 249.363 61.846C249.833 61.846 250.225 61.7872 250.539 61.6696C250.852 61.5521 251.127 61.3953 251.342 61.1797C251.558 60.9838 251.734 60.7682 251.871 60.5134C251.871 60.5134 251.93 60.5134 252.028 60.5134C252.126 60.533 252.224 60.5722 252.322 60.631C252.42 60.6898 252.538 60.7682 252.616 60.8858C252.694 61.0034 252.734 61.1405 252.734 61.3169C252.734 61.4933 252.655 61.6892 252.518 61.8852C252.361 62.0812 252.146 62.2967 251.871 62.4731C251.577 62.6494 251.225 62.8062 250.813 62.9238C250.402 63.061 249.912 63.1198 249.343 63.1198L249.383 63.1785ZM251.499 58.2795C251.479 57.8092 251.362 57.4172 251.166 57.0645C250.97 56.7118 250.715 56.457 250.382 56.2806C250.049 56.0847 249.677 56.0063 249.226 56.0063C248.775 56.0063 248.403 56.1043 248.031 56.3002C247.678 56.4962 247.364 56.7706 247.129 57.1037C246.894 57.4368 246.737 57.8483 246.678 58.2795H251.48H251.499ZM247.835 53.7135C247.835 53.7135 247.795 53.7135 247.776 53.7135C247.756 53.7135 247.737 53.7135 247.717 53.6939C247.697 53.6743 247.717 53.6743 247.717 53.6351C247.717 53.5764 247.756 53.4588 247.854 53.2628C247.933 53.0668 248.07 52.8317 248.227 52.5769C248.383 52.3222 248.56 52.0674 248.775 51.8127C248.991 51.5579 249.206 51.362 249.441 51.2052C249.677 51.0484 249.931 50.97 250.167 50.97C250.402 50.97 250.578 51.0484 250.696 51.1856C250.813 51.3228 250.872 51.5187 250.872 51.7147C250.872 51.9499 250.774 52.185 250.598 52.4006C250.421 52.6161 250.167 52.7925 249.873 52.9493C249.579 53.106 249.285 53.2432 248.991 53.3608C248.697 53.4784 248.442 53.5568 248.227 53.6155C248.011 53.6743 247.874 53.7135 247.835 53.7135Z" fill="#7F36FF"/>
<path d="M144.993 33.8036C143.837 47.6582 132.216 58.593 118.068 58.593C103.919 58.593 92.2987 47.6582 91.1425 33.8036H86.6353C87.7915 50.147 101.431 63.1001 118.068 63.1001C134.705 63.1001 148.344 50.147 149.5 33.8036H144.993Z" fill="#7F36FF"/>
<path d="M82.2262 58.4754C69.1163 57.378 58.6322 46.9136 57.5544 33.8036H53.0473C54.1643 49.4023 66.6275 61.8852 82.2262 62.9826V58.4754Z" fill="#7F36FF"/>
<path d="M164.55 0C155.34 0 147.07 3.97806 141.309 10.3077C135.548 3.99765 127.278 0 118.068 0C101.431 0 87.7915 12.9532 86.6353 29.2965H91.1425C92.2987 15.4419 103.919 4.50716 118.068 4.50716C126.22 4.50716 133.51 8.15206 138.468 13.8938C137.194 15.7554 136.116 17.7739 135.273 19.9098C134.117 22.4182 134.666 25.4164 136.606 27.3761C137.899 28.6694 139.604 29.3161 141.289 29.3161C142.975 29.3161 144.68 28.6694 145.993 27.3761C147.972 25.3968 148.501 22.379 147.306 19.8511C146.463 17.7543 145.385 15.7554 144.131 13.9134C149.089 8.17166 156.379 4.52674 164.55 4.52674C178.699 4.52674 190.319 15.4615 191.476 29.3161H195.983C194.827 12.9728 181.188 0.0196005 164.55 0.0196005V0ZM143.229 21.7519C143.602 22.5554 143.445 23.5352 142.818 24.1623C141.995 24.9853 140.643 24.9853 139.8 24.1623C139.173 23.5352 138.997 22.575 139.369 21.7715C139.898 20.3998 140.564 19.0672 141.309 17.813C142.054 19.0672 142.7 20.3802 143.229 21.7519Z" fill="#7F36FF"/>
</svg>
